<svg width="327" height="275" viewBox="0 0 327 275" fill="none" xmlns="http://www.w3.org/2000/svg">
<g clip-path="url(#clip0_182_375)">
<path d="M207.244 195.059C207.719 195.037 208.337 194.78 208.885 194.696C210.132 194.503 211.953 194.622 213.091 195.143C213.161 195.174 213.197 195.267 213.271 195.297C213.345 195.326 213.366 195.255 213.372 195.258C213.842 195.537 214.52 196.158 214.785 196.671C215.049 197.184 215.349 198.457 215.32 199.063C215.317 199.166 215.275 199.284 215.256 199.388L215.349 199.376L215.296 199.455C215.38 199.572 215.288 199.647 215.278 199.747C215.102 201.305 214.837 202.582 214.343 204.082C214.257 204.338 214.055 205.035 213.943 205.233C213.83 205.431 213.873 205.317 213.811 205.331L213.9 205.438C213.655 205.604 213.669 205.908 213.573 206.149C212.836 208.023 211.931 209.7 211.27 211.56C210.964 212.427 210.927 212.959 210.366 213.731C210.183 213.985 210.093 214.469 209.875 214.732C209.748 214.882 209.641 214.918 209.531 215.033C209.42 215.148 209.409 215.346 209.384 215.37C209.352 215.412 209.275 215.402 209.245 215.448C209.214 215.494 209.262 215.519 209.259 215.524C209.241 215.551 209.16 215.48 209.119 215.486C209.078 215.492 209.055 215.584 209.027 215.599C208.999 215.615 208.752 215.487 208.641 215.665C208.596 215.585 208.672 215.532 208.652 215.443C208.609 215.28 208.257 214.728 208.588 214.771C208.553 214.629 208.564 214.442 208.587 214.302C208.611 214.162 208.722 213.984 208.704 213.836C208.686 213.688 208.535 213.509 208.486 213.383C208.282 212.851 208.128 212.296 207.936 211.76C207.521 210.589 207.087 209.406 206.697 208.225C206.5 207.623 206.18 207.03 206.116 206.358C206.052 205.686 205.604 205.325 205.547 205.091C205.491 204.856 205.624 205.037 205.615 205.002C205.591 204.89 205.329 204.444 205.324 204.344C205.313 204.126 205.145 203.813 205.055 203.528C204.965 203.243 204.949 203.114 204.914 202.91C204.727 202.914 204.746 202.8 204.926 202.828C204.894 202.68 204.814 202.837 204.765 202.672C204.716 202.507 204.84 202.401 204.753 202.314L204.68 202.438C204.702 202.343 204.55 202.125 204.553 202.081C204.555 202.036 204.729 201.796 204.578 201.858C204.428 201.921 204.455 201.852 204.405 201.721L204.532 201.673C204.297 201.54 204.245 201.304 204.15 201.069L204.265 200.977L204.106 200.941L204.2 200.808L204.049 200.794L204.017 200.709C204.19 200.478 204.158 200.094 204.147 199.788L204.455 199.719C204.436 199.62 204.356 199.626 204.279 199.641L204.283 199.398L204.468 199.375L204.451 199.053C204.704 199.019 204.752 198.652 205.02 198.81C205.149 198.881 205.339 199.2 205.485 199.328C205.631 199.456 205.703 199.429 205.784 199.528C205.729 199.636 205.774 199.716 205.762 199.798C205.75 199.88 205.699 199.861 205.69 199.913C205.66 200.176 205.765 200.145 205.803 200.246C205.842 200.348 206.278 201.622 206.331 201.684C206.384 201.746 206.465 201.657 206.501 201.9C206.536 202.143 206.404 201.99 206.481 202.062C206.557 202.135 206.554 202.039 206.589 202.117C206.624 202.196 206.71 202.622 206.757 202.682C206.804 202.741 206.841 202.649 206.853 202.693L206.785 202.768L206.826 202.873L206.894 202.799C206.984 202.996 206.947 203.214 207.041 203.41C207.136 203.606 207.202 203.59 207.205 203.623C207.208 203.655 207.144 203.665 207.147 203.698C207.174 203.896 207.35 203.925 207.355 204.001C207.36 204.076 207.298 203.954 207.347 204.144C207.395 204.333 207.439 204.346 207.515 204.52C207.592 204.694 207.741 204.893 207.626 204.961L207.719 204.95L207.659 205.045L207.767 205.076L207.691 205.129L207.793 205.143C207.845 205.254 207.889 205.305 207.788 205.383C207.793 205.419 207.883 205.351 207.931 205.439C208.047 205.641 208.183 206.058 208.285 206.3C208.498 206.804 208.9 207.626 209.037 208.135C209.079 208.293 208.972 208.344 208.981 208.355C209.016 208.419 209.141 208.405 209.177 208.473C209.355 208.811 209.468 209.257 209.622 209.609C209.777 209.961 209.889 210.14 210.009 210.404C210.087 210.393 210.082 210.342 210.112 210.292C210.293 209.995 210.531 209.405 210.686 209.065C211.614 207.021 212.535 204.906 213.009 202.712C213.132 202.148 213.224 201.682 213.23 201.104C213.235 200.526 213.22 200.677 213.16 200.443C213.1 200.21 212.992 199.942 212.924 199.702C212.856 199.462 212.883 199.268 212.779 199.134C212.674 198.999 212.586 199.135 212.628 198.843C212.475 198.858 212.559 198.763 212.486 198.675C212.414 198.586 212.074 198.243 212.041 198.231C211.996 198.215 211.939 198.27 211.918 198.264C211.896 198.258 211.933 198.166 211.894 198.128C211.856 198.089 211.756 198.108 211.72 198.088C209.936 197.045 208 197.309 206.013 197.829C204.493 198.229 202.21 199.341 201.028 200.385C200.8 200.584 200.594 200.929 200.395 201.117C200.341 201.166 200.213 201.186 200.198 201.221C200.182 201.256 200.227 201.321 200.205 201.378C200.183 201.435 200.081 201.459 200.072 201.536C200.062 201.612 200.214 202.008 200.276 202.043C200.337 202.077 200.382 202.016 200.437 202.034C200.492 202.052 200.528 202.144 200.596 202.171C200.865 202.291 201.192 202.388 201.48 202.432L201.424 202.792L201.166 202.988L201.333 203.045C201.169 203.084 201.28 203.249 201.054 203.2L201.149 203.449L200.89 203.655L200.943 203.92L200.805 203.876C200.761 203.951 200.734 204.005 200.805 204.065L200.616 204.191C200.519 204.102 200.644 204.025 200.641 204.017C200.615 203.949 200.518 203.909 200.556 203.783C200.301 203.925 200.225 203.891 199.978 203.787L200.18 203.685L200.073 203.533L200.045 203.636L199.596 203.663L199.598 203.478L199.519 203.412C199.427 203.525 199.372 203.57 199.219 203.575C199.17 203.512 199.291 203.523 199.282 203.474C199.262 203.385 199.156 203.348 199.119 203.289C199.027 203.126 199.123 202.519 199.141 202.299C199.237 201.087 199.825 200.034 200.6 199.078C201.375 198.123 200.558 198.969 200.746 198.979L200.673 198.915C200.689 198.856 201.022 198.602 201.054 198.561C201.326 198.185 201.629 198.079 201.987 197.777C202.346 197.475 201.986 197.686 202.014 197.67C202.251 197.555 202.072 197.643 202.213 197.521C202.514 197.27 203.006 197.014 203.345 196.801C203.931 196.436 204.519 196.09 205.165 195.794C205.811 195.498 206.927 195.065 207.255 195.05L207.244 195.059Z" fill="#6487F2"/>
<path d="M217.872 191.35L217.978 191.261C217.979 191.44 218.134 191.641 218.16 191.796C218.185 191.951 218.125 192.071 218.155 192.2C218.185 192.328 218.345 192.33 218.151 192.404L218.193 192.828L218.276 192.743L218.334 192.818L218.414 192.787C218.362 192.589 218.536 192.677 218.606 192.646C218.712 192.605 218.745 192.452 218.948 192.539C218.894 192.298 218.667 192.526 218.471 192.431L218.742 192.255L218.47 192.277L218.267 192.002L218.405 191.881C218.407 192.011 218.491 192.23 218.661 192.17C218.6 192.125 218.543 191.925 218.559 191.88C218.576 191.835 218.806 191.79 218.71 191.667C218.55 191.729 218.28 191.794 218.165 191.634L218.411 191.593C218.407 191.406 218.521 191.425 218.493 191.605C218.628 191.592 218.713 191.41 218.838 191.497L218.802 191.656C219.01 191.668 219.023 191.789 219.083 191.959L219.254 191.962C219.153 192.102 219.282 192.086 219.313 192.142C219.391 192.282 219.271 192.309 219.578 192.302L219.589 192.457C219.722 192.489 219.882 192.655 219.871 192.814L219.939 192.739C220.006 192.801 220.037 192.982 220.077 193.025C220.486 193.473 220.912 193.977 221.269 194.479C221.626 194.98 221.88 195.478 222.222 195.84C222.295 195.918 222.319 196.03 222.356 196.089C222.423 196.189 222.649 196.262 222.499 196.373C222.635 196.427 222.799 196.828 222.824 196.843C222.88 196.875 223.033 196.806 223.01 196.975C223.194 196.798 223.39 196.829 223.587 196.777C223.785 196.726 223.7 196.705 223.781 196.689C224.153 196.624 224.717 196.557 224.855 196.993L224.64 197.124C224.786 197.392 224.532 197.562 224.602 197.859C224.297 197.908 224.388 197.956 224.302 198.124C224.217 198.292 224.129 198.316 224.163 198.468L224.025 198.472C224.075 198.743 224.133 199.031 224.392 199.178L224.316 199.231C224.325 199.305 224.4 199.223 224.426 199.267C224.483 199.351 224.488 199.567 224.524 199.611C224.598 199.689 224.706 199.643 224.726 199.684C224.747 199.724 224.727 199.785 224.75 199.834C224.808 199.947 225.046 200.238 224.901 200.265L224.917 200.307C224.968 200.288 225.022 200.291 225.061 200.329C225.1 200.367 225.276 200.789 225.339 200.89C225.432 201.043 225.696 201.165 225.579 201.403L225.706 201.354C225.722 201.358 225.718 201.475 225.741 201.51C226.362 202.535 227.173 203.501 227.797 204.548C228.421 205.596 227.803 204.677 227.819 204.694C227.836 204.712 227.884 204.674 227.931 204.72C228.122 204.903 227.897 204.921 227.874 205.002C227.852 205.083 227.91 205.197 227.901 205.287C227.861 205.636 227.578 205.832 227.453 206.098C227.327 206.364 227.454 206.291 227.428 206.335C227.401 206.379 227.335 206.346 227.305 206.367C227.274 206.389 227.349 206.471 227.228 206.431C227.357 206.744 227.018 206.792 226.897 206.969C226.776 207.146 226.928 207.126 226.893 207.198C226.857 207.27 226.664 207.334 226.796 207.462L226.286 207.508L226.288 207.425C226.242 207.418 226.19 207.434 226.149 207.391C226.032 207.262 225.78 206.643 225.664 206.441C225.01 205.317 224.262 204.211 223.777 202.999L223.669 202.982C223.548 202.501 223.217 202.091 222.984 201.649C222.753 201.21 222.598 200.669 222.254 200.288L222.328 200.241L222.213 200.207C222.169 200.016 222.154 199.8 221.894 199.841C221.634 199.883 221.443 199.966 221.338 200.006C220.545 200.31 219.662 200.683 218.883 201.035C218.747 201.097 218.457 201.223 218.351 201.287C218.245 201.352 218.219 201.512 218.218 201.546C218.216 201.605 218.263 201.664 218.265 201.707C218.212 202.463 218.071 203.533 218.132 204.26C218.137 204.349 218.201 204.441 218.177 204.542L218.297 204.54L218.427 203.933L218.901 203.781L219.338 205.979L219.367 207.429C219.412 208.253 219.303 209.142 218.974 209.873C218.834 210.178 218.663 210.703 218.51 210.96C218.357 211.217 218.166 211.387 218.108 211.463C218.05 211.538 217.81 211.833 217.745 211.878C217.602 211.971 217.124 212.077 217.057 211.837L216.993 211.91C217.019 211.726 216.874 211.626 216.839 211.509C216.561 210.672 216.581 209.209 216.566 208.314C216.566 208.198 216.488 207.706 216.499 207.658C216.547 207.47 216.566 207.632 216.54 207.376C216.515 207.12 216.597 207.045 216.611 206.904C216.625 206.763 216.539 206.501 216.543 206.349C216.546 206.13 216.655 205.77 216.67 205.57C216.692 205.3 216.598 205.017 216.756 204.734C216.446 204.708 216.793 204.628 216.8 204.596C216.782 204.55 216.725 204.514 216.717 204.469C216.709 204.423 216.739 204.01 216.744 203.935C216.75 203.861 216.814 203.851 216.818 203.786C216.826 203.682 216.794 203.51 216.776 203.401L216.877 203.41C216.729 203.201 216.926 203.034 216.839 202.845L216.945 202.199C216.633 202.193 216.337 202.292 216.031 202.177C215.99 202.145 215.925 201.686 215.942 201.641C215.994 201.5 216.255 201.361 216.269 201.321C216.321 201.205 216.055 201.292 215.985 201.213C216.086 201.135 216.039 201.1 216.003 200.993C216.279 200.931 216.171 200.701 216.241 200.553C216.31 200.406 216.627 200.197 216.68 200.124C216.734 200.05 216.684 199.943 216.72 199.886C216.768 199.809 216.974 199.716 217.036 199.624C217.13 199.492 217.024 199.353 217.024 199.227C217.031 198.654 217.07 198.126 217.065 197.533C217.06 196.94 217.087 197.374 217.093 197.29C217.101 197.146 216.95 197.069 217.137 196.9L217.029 196.869C217.197 196.805 217.052 196.628 217.037 196.513C217.022 196.398 217.11 196.451 217.099 196.359C217.035 195.827 217.143 195.137 217.125 194.559C217.106 193.981 217.051 194.089 217.034 193.868L216.782 193.844C216.977 193.595 216.836 193.668 216.809 193.509C216.75 193.203 217.062 192.619 216.959 192.349C217.181 192.196 217.067 192.075 217.089 191.97C217.112 191.864 217.22 191.881 217.263 191.816C217.339 191.7 217.324 191.42 217.576 191.435L217.522 191.358C217.589 191.304 217.655 191.39 217.698 191.374C217.74 191.357 217.719 191.177 217.87 191.37L217.872 191.35ZM218.425 193.068C218.417 193.086 218.172 192.977 218.169 193.22C218.165 193.463 218.249 193.329 218.247 193.374C218.157 195.131 218.404 197.024 218.339 198.771C218.339 198.81 218.217 198.92 218.401 198.97C218.595 198.809 218.975 198.779 219.156 198.681C219.336 198.583 219.61 198.39 219.827 198.288C220.187 198.116 220.591 198.033 220.907 197.772C220.877 197.58 220.525 197.27 220.565 197.134L220.633 197.059L220.465 197.075C220.431 196.885 220.307 196.725 220.218 196.556C220.129 196.387 220.162 196.461 220.08 196.362C219.999 196.262 219.864 196.101 219.982 195.979L219.823 195.943L219.885 195.726L219.724 195.811L219.617 195.659L219.744 195.61L219.697 195.488L219.51 195.506C219.471 195.367 219.713 195.429 219.697 195.362C219.657 195.17 219.586 195.4 219.421 195.274L219.668 195.035L219.423 195.153L219.289 194.943C219.478 194.754 219.23 194.864 219.223 194.77C219.218 194.656 219.413 194.697 219.426 194.668L219.385 194.563L219.291 194.555L219.254 194.347L219.043 194.428L219.097 194.189C218.988 194.12 218.88 194.205 218.777 194.239L218.766 194.147C218.921 194.199 218.939 194.018 219.066 193.983L219.013 193.907L218.881 194.006L218.737 193.742C218.95 193.593 218.483 193.269 218.49 193.237C218.497 193.205 218.632 193.168 218.58 193.081L218.414 192.976L218.419 193.066L218.425 193.068Z" fill="#6487F2"/>
<path d="M230.53 168.198C230.558 168.221 230.718 168.222 230.703 168.335L230.645 168.41C230.759 168.366 230.919 168.532 230.752 168.563L230.86 168.594L230.792 168.668L230.937 168.729C230.961 169.019 231.105 169.293 231.211 169.572C231.318 169.85 231.363 169.828 231.365 169.846C231.38 169.884 231.378 170.17 231.402 170.219C231.426 170.268 231.514 170.297 231.538 170.361C231.563 170.424 231.473 170.405 231.472 170.478C231.485 170.739 231.686 170.909 231.751 171.053C231.816 171.198 231.69 171.096 231.687 171.14C231.682 171.215 231.773 171.591 231.887 171.533L231.901 171.963L232.006 171.971C231.929 172.16 232.074 172.148 232.092 172.219C232.116 172.321 232.005 172.726 232.239 172.704C232.127 172.854 232.332 172.92 232.328 172.936C232.324 172.952 232.257 172.954 232.256 172.988C232.255 173.022 232.337 173.097 232.352 173.15C232.432 173.385 232.482 173.729 232.68 173.866C232.529 173.89 232.734 174.159 232.789 174.288C233.057 174.95 233.282 175.638 233.592 176.332C233.603 176.361 233.675 176.372 233.686 176.402C233.704 176.448 233.687 176.895 233.853 176.797L233.877 176.861L233.809 176.935C233.992 177.034 233.888 177.103 233.922 177.192C233.987 177.375 234.134 177.633 234.175 177.801C234.215 177.969 234.06 177.995 234.254 177.969L234.286 178.054C234.142 178.157 234.276 178.193 234.316 178.284C234.356 178.375 234.258 178.321 234.261 178.392C234.272 178.572 234.381 179.057 234.299 179.185C234.218 179.313 234.194 179.226 234.183 179.312C234.173 179.398 234.284 179.549 234.282 179.569C234.28 179.589 234.185 179.645 234.167 179.749C234.149 179.853 234.169 179.942 234.165 179.996C234.164 180.094 234.21 180.139 234.17 180.275C234.131 180.411 233.945 180.545 233.937 180.563C233.884 180.714 233.918 181.131 233.842 181.247C233.715 181.446 233.563 181.427 233.413 181.504C233.264 181.581 233.306 181.627 233.261 181.649C233.156 181.704 233.087 181.561 233.019 181.51C232.951 181.459 232.864 181.56 232.892 181.37C232.667 181.413 232.702 181.177 232.646 181.106C232.59 181.036 232.493 181.073 232.409 181.004C232.324 180.935 232.282 180.762 232.231 180.704C232.139 180.604 231.979 180.501 231.877 180.4C231.775 180.299 231.758 180.126 231.597 180.212L231.26 179.814L231.133 179.911L231.203 179.715C231.073 179.654 231.005 179.539 230.908 179.451C230.811 179.362 230.802 179.351 230.726 179.279C230.65 179.206 230.459 178.975 230.323 179.061C230.326 178.992 230.337 178.944 230.281 178.888C230.139 178.744 229.563 178.341 229.364 178.2C228.999 177.943 228.553 177.8 228.267 177.484C228.105 177.643 228.091 177.377 228.077 177.368C228.022 177.326 227.865 177.396 227.854 177.391C227.81 177.364 227.77 177.234 227.662 177.232L227.76 177.751C228.106 178.3 228.272 178.948 228.486 179.557C228.604 179.889 228.718 180.136 228.812 180.444C228.906 180.751 229.024 181.098 229.021 181.191C229.018 181.284 228.948 181.291 228.959 181.306C228.986 181.364 229.068 181.376 229.079 181.405C229.115 181.498 229.035 181.833 228.848 181.76L228.945 181.887C228.8 182.001 228.942 182.082 228.934 182.148C228.925 182.214 228.754 182.449 228.752 182.469C228.747 182.52 228.83 182.56 228.83 182.623C228.83 182.686 228.727 182.745 228.743 182.812L228.668 182.743L228.659 182.844L228.553 182.884L228.56 182.79L228.357 182.737L228.443 182.583L228.292 182.569C228.344 182.389 228.283 182.432 228.229 182.341C228.175 182.251 228.221 182.271 228.203 182.249C228.185 182.227 228.102 182.288 228.088 182.163C228.074 182.038 228.168 182.108 228.16 182.087C228.138 182.028 227.973 181.902 227.937 181.834C227.794 181.574 227.666 181.265 227.52 180.997C227.37 180.721 227.227 180.398 227.07 180.139C226.912 179.88 226.996 180.061 226.937 180.045L227.013 179.992C227.029 179.87 226.9 179.948 226.888 179.919C226.844 179.829 226.922 179.741 226.891 179.686C226.86 179.63 226.75 179.585 226.694 179.5C226.367 179.001 226.116 178.183 225.75 177.709C225.385 177.235 225.506 177.45 225.408 177.284C225.348 177.176 225.327 176.996 225.244 176.892C225.16 176.789 225.201 176.908 225.088 176.652C224.976 176.395 224.831 176.397 224.822 176.362C224.8 176.303 224.952 176.119 224.648 176.211C224.749 176.032 224.469 175.932 224.637 175.804C224.328 175.792 224.436 175.368 224.182 175.374L224.312 175.106C224.187 175.033 224.029 174.673 224.077 174.544C224.124 174.414 224.238 174.448 224.25 174.429C224.262 174.409 224.179 174.243 224.174 174.167C224.143 173.923 224.284 173.646 224.487 173.52C224.272 173.274 224.347 172.877 224.726 172.945L224.761 172.859L224.694 172.773C224.704 172.673 225.113 172.54 225.214 172.477C225.393 172.49 225.513 172.677 225.622 172.746C226.939 173.605 228.578 173.881 229.965 174.684C230.052 174.733 230.444 175.125 230.541 174.923C230.637 174.722 230.346 174.833 230.375 174.745C230.441 174.7 230.506 174.656 230.453 174.57L230.319 174.597C230.248 174.111 230.006 173.643 229.895 173.178C229.858 173.018 229.772 172.896 229.914 172.774L229.884 172.693C229.853 172.652 229.681 172.757 229.68 172.467C229.68 172.176 229.736 172.397 229.742 172.361C229.75 172.256 229.358 172.169 229.626 172.086L229.617 171.998L229.494 172.044C229.479 172.031 229.433 171.923 229.434 171.898C229.429 171.837 229.597 171.87 229.528 171.766C229.459 171.661 229.41 171.748 229.326 171.669C229.18 171.527 229.235 171.38 229.202 171.32C229.12 171.182 228.817 171.037 229.196 170.901C229.121 170.668 228.85 170.516 228.892 170.234C228.934 169.952 229.054 170.114 229.068 170.075C229.082 170.035 228.963 169.612 229.023 169.453C229.083 169.295 229.157 169.387 229.208 169.281C229.259 169.174 229.191 169.123 229.197 169.062C229.203 169.002 229.264 168.998 229.266 168.978C229.274 168.922 229.209 168.791 229.238 168.664C229.289 168.432 229.446 168.464 229.576 168.336C229.707 168.209 229.582 168.237 229.646 168.189C229.838 168.047 230.131 167.891 230.361 168.011C230.591 168.131 230.473 168.138 230.542 168.193L230.53 168.198Z" fill="#6487F2"/>
<path d="M231.994 184.501C232.006 184.506 232.161 184.66 232.12 184.69L232.246 184.641L232.147 184.51L232.224 184.457C232.25 184.577 232.303 184.475 232.36 184.496C232.417 184.518 232.463 184.588 232.522 184.603C232.581 184.619 232.715 184.578 232.753 184.602C232.952 184.729 232.924 185.199 232.943 185.385C232.961 185.572 232.988 185.857 232.988 186.108C232.991 187.781 233.194 189.522 233.199 191.199C233.2 191.479 233.109 191.519 233.091 191.623C233.072 191.727 233.2 191.731 233.175 191.842C233.15 191.953 233.05 191.933 233.035 192.007C233.019 192.081 233.076 192.253 233.069 192.362C233.049 192.625 232.818 193.019 232.721 193.269C232.509 193.815 232.356 194.449 231.841 194.797C231.856 194.951 231.975 194.881 232.056 194.98L232.003 195.093C232.169 195.135 232.148 195.332 232.215 195.471C232.283 195.609 232.44 195.578 232.278 195.81C232.382 195.741 232.558 196.162 232.562 196.185C232.586 196.451 232.576 196.31 232.689 196.566C232.802 196.823 232.897 197.033 232.898 197.062C232.903 197.137 232.793 197.165 232.81 197.197L232.916 197.21C232.937 197.327 232.97 197.465 233.021 197.571C233.384 198.327 233.67 199.112 234.072 199.843C234.473 200.575 234.823 201.021 234.806 201.09C234.784 201.196 234.646 201.19 234.63 201.25C234.614 201.309 234.656 201.506 234.622 201.582C234.589 201.658 234.491 201.642 234.479 201.661C234.457 201.694 234.469 201.839 234.412 201.89L234.504 201.879L234.473 201.987C234.189 201.864 234.242 202.231 233.962 202.232L234.017 202.501L233.921 202.441C233.787 202.483 234.027 202.541 233.848 202.566L233.795 202.489C233.732 202.692 233.523 202.715 233.358 202.802L233.594 202.784C233.518 202.939 233.279 202.924 233.345 203.146L233.144 203.126C233.121 203.193 233.278 203.35 233.162 203.361C232.896 203.376 232.671 203.332 232.583 203.051L232.515 203.126L232.432 203.036L232.529 202.922C232.328 202.815 232.422 202.668 232.388 202.579C232.329 202.427 232.193 202.262 232.162 202.08L232.06 202.066L232.131 201.986C232.11 201.931 232.045 201.888 232.03 201.836C231.639 200.627 231.229 199.42 230.917 198.204C230.817 197.817 230.748 197.446 230.666 197.081C230.584 196.716 230.498 196.454 230.458 196.135C230.386 196.226 230.319 196.242 230.214 196.258C229.913 196.305 229.128 196.036 228.845 195.917C228.562 195.798 228.245 195.601 227.968 195.46L227.905 195.523L227.883 195.338C227.713 195.437 227.694 195.275 227.599 195.229C227.504 195.183 227.421 195.181 227.344 195.143C227.266 195.105 227.266 195.042 227.204 195.018C227.096 194.977 227.217 195.129 227.033 194.938C226.753 194.649 225.91 194.092 225.552 193.866C225.438 193.794 225.381 193.608 225.221 193.708L225.265 193.57C225.003 193.506 224.792 193.234 224.583 193.067C224.133 192.713 223.604 192.393 223.191 191.961C222.779 191.529 222.952 191.651 222.949 191.633C222.947 191.614 222.982 191.34 222.987 191.328C223.091 191.158 223.257 191.287 223.262 190.971C223.266 190.655 223.211 190.865 223.216 190.815C223.225 190.738 223.438 190.144 223.518 190.404L223.56 190.387C223.498 190.15 223.69 190.197 223.759 190.137C223.828 190.077 223.841 189.859 223.952 189.807C224.062 189.755 224.081 189.854 224.128 189.85C224.175 189.847 224.232 189.767 224.339 189.769C224.446 189.772 224.996 190.146 225.088 190.208C226.601 191.19 228.215 192.433 229.915 193.131C230.1 193.21 230.443 193.461 230.648 193.314L230.586 192.371C230.732 192.247 230.599 192.076 230.588 191.91C230.536 190.992 230.478 189.959 230.403 189.006C230.39 188.808 230.321 188.515 230.362 188.33C230.402 188.145 230.525 188.277 230.31 188.195C230.463 188.064 230.288 187.899 230.25 187.787C230.212 187.676 230.304 187.738 230.313 187.7C230.332 187.596 230.316 187.491 230.388 187.391L230.203 187.413C230.397 187.237 230.263 187.013 230.297 186.826C230.314 186.742 230.456 186.697 230.307 186.537C230.354 186.47 230.573 186.357 230.595 186.315C230.617 186.273 230.551 185.935 230.623 185.782C230.694 185.629 230.877 185.675 230.953 185.583C231.029 185.491 231.015 185.254 231.136 185.14C231.257 185.026 231.439 185.096 231.549 184.943L231.645 185.003C231.626 184.918 231.65 184.677 231.696 184.62C231.742 184.564 231.965 184.488 231.981 184.492L231.994 184.501Z" fill="#6487F2"/>
<path d="M200.518 186.265C200.592 186.382 200.698 186.457 200.803 186.669C200.909 186.88 201.019 186.702 200.87 186.842C201.222 187.345 201.577 187.891 201.91 188.431C202.641 189.607 203.273 190.787 204.005 191.962C204.096 192.111 204.611 192.76 204.623 192.843C204.635 192.925 204.565 192.894 204.566 192.908L204.624 192.973L204.456 193.037C204.601 193.19 204.453 193.358 204.428 193.469C204.403 193.58 204.462 193.62 204.444 193.661C204.425 193.702 204.258 193.795 204.202 193.889C204.146 193.983 204.175 194.045 204.163 194.064C204.13 194.106 204.043 194.105 204.016 194.135C203.971 194.196 204.137 194.451 203.876 194.426L203.939 194.489L203.815 194.836L203.699 194.784C203.578 194.937 203.506 195.09 203.419 195.254C203.387 195.31 203.304 195.356 203.291 195.385C203.278 195.415 203.363 195.459 203.307 195.515C203.227 195.473 202.737 195.569 202.696 195.488C202.655 195.407 202.726 195.351 202.695 195.295C202.664 195.239 202.577 195.229 202.531 195.159C202.351 194.865 202.295 194.505 202.027 194.274C201.932 194.315 202.106 194.427 201.975 194.439C201.728 194.427 201.514 194.461 201.284 194.341C201.054 194.221 201.139 194.14 201.069 194.085C200.511 193.651 199.696 193.242 199.051 192.934C198.405 192.625 198.676 192.763 198.629 192.781L198.546 193.006L198.687 193.02C198.869 193.709 199.261 194.29 199.517 194.956C199.3 195.073 199.456 195.163 199.438 195.33C199.419 195.496 199.376 195.421 199.359 195.476C199.293 195.709 199.314 195.789 199.032 195.911C199.207 196.014 199.001 196.16 198.934 196.273C198.834 196.442 198.55 196.711 198.537 196.74C198.524 196.769 198.586 196.793 198.57 196.838C198.513 197.005 198.392 197.207 198.215 197.275C198.038 197.342 197.943 197.297 197.925 197.289C197.849 197.255 197.535 196.713 197.509 196.621C197.484 196.529 197.582 196.584 197.564 196.499C197.417 195.863 197.062 195.09 196.869 194.448C196.839 194.343 196.825 193.942 196.802 193.893C196.778 193.844 196.72 193.895 196.692 193.872C196.524 193.738 196.519 193.358 196.463 193.2C196.408 193.043 196.182 192.858 196.318 192.772C196.308 192.733 196.256 192.786 196.231 192.772C196.206 192.757 196.092 192.245 196.053 192.143C196.014 192.042 195.931 192.026 195.909 191.957C195.887 191.888 196.016 191.756 195.812 191.704L195.914 191.592C195.772 191.487 195.714 191.436 195.786 191.259C195.593 191.323 195.626 191.03 195.563 190.943C195.501 190.855 195.372 190.847 195.315 190.787L195.391 190.733L195.258 190.639L195.352 190.555L195.26 190.392L195.219 190.601L194.999 190.467L195.075 190.414L195.043 190.33C194.864 190.432 194.687 190.336 194.677 190.132L194.381 190.245C194.33 190.148 194.404 190.052 194.485 190.011C194.386 189.904 194.252 189.907 194.125 189.956C194.106 189.717 194.3 189.642 194.116 189.427L194.522 189.223L194.397 189.15L194.493 189.036L194.382 188.846C194.554 188.79 194.545 188.629 194.624 188.545C194.704 188.462 195.062 188.349 195.167 188.347C195.273 188.345 195.252 188.416 195.281 188.415C195.384 188.419 195.506 188.396 195.615 188.417L195.67 188.106L195.729 188.083L195.783 188.159C195.85 188.07 195.918 187.996 196.032 187.991C196.298 187.976 196.741 188.45 196.905 188.638L196.78 188.918C196.819 189.121 197.37 189.234 197.543 189.318C197.715 189.401 197.883 189.535 198.013 189.597C198.252 189.703 199.868 190.385 199.959 190.331C200.049 190.277 199.874 189.947 199.831 189.872C199.745 189.711 199.705 189.62 199.64 189.476C199.496 189.163 199.228 188.831 199.269 188.471L199.143 188.52L198.977 187.834C198.802 187.959 198.933 187.696 198.896 187.623C198.759 187.632 198.694 187.26 198.618 187.101C198.542 186.941 198.53 187.062 198.508 186.789C198.486 186.517 198.456 186.655 198.46 186.614C198.464 186.574 198.615 186.487 198.649 186.363C198.684 186.238 198.677 186.043 198.706 185.891C198.735 185.74 198.657 185.803 198.665 185.762C198.674 185.72 198.982 185.413 199.019 185.36C199.057 185.307 199.105 185.08 199.182 185.027C199.258 184.973 199.333 185.041 199.368 185.033C199.403 185.024 199.417 184.922 199.505 184.898C199.647 184.853 199.956 185.102 200.03 185.219C200.189 185.482 200.354 186.028 200.518 186.29L200.518 186.265Z" fill="#6487F2"/>
<path d="M219.786 177.346C220.403 177.603 221.194 178.141 221.797 178.514C222.4 178.888 222.203 178.702 222.245 178.749C222.287 178.795 222.253 178.871 222.275 178.877C222.297 178.884 222.368 178.842 222.441 178.867C222.513 178.893 222.649 179.082 222.725 179.131C222.802 179.179 222.852 179.145 222.927 179.189C223.149 179.326 223.314 179.543 223.583 179.45C223.993 179.307 224.184 179.137 224.676 179.108C225.168 179.079 225.184 179.121 225.237 179.309C225.29 179.497 225.222 179.648 225.217 179.684C225.211 179.72 225.102 180.028 225.09 180.048C224.999 180.227 224.747 180.29 225.011 180.586L225.074 180.523C225.39 180.881 225.806 181.108 226.157 181.418C226.486 181.708 227.269 182.424 227.479 182.769C227.688 183.114 227.51 182.888 227.517 182.958L227.615 182.973L227.408 183.053C227.41 183.057 227.508 183.45 227.508 183.45L227.339 183.515C227.516 183.698 227.284 183.763 227.125 183.839L227.233 183.87L227.071 184.077L227.222 184.092L227.011 184.173L227.082 184.484L226.848 184.38L226.971 184.575L226.855 184.523C226.96 184.898 226.675 184.925 226.538 185.123C226.401 185.321 226.547 185.26 226.52 185.314C226.45 185.447 226.185 185.626 226.025 185.639C225.751 185.657 225.542 185.123 225.398 184.937C224.692 184.031 223.931 183.511 223.165 182.736C223.063 182.634 223.104 182.488 222.804 182.564L221.445 183.424L221.299 183.761L221.465 183.866C221.419 184.049 221.612 184.149 221.475 184.346L221.576 184.356C221.548 184.536 221.626 184.714 221.668 184.887C221.71 185.059 221.917 185.536 221.93 185.657C221.942 185.778 221.859 185.713 221.866 185.745C221.924 185.984 221.964 186.036 221.931 186.329C221.898 186.622 221.731 186.817 221.59 187.157C221.45 187.496 221.47 187.512 221.526 187.631C221.301 187.587 221.37 187.73 221.33 187.789C221.191 187.982 221.219 187.991 221.13 188.175C221.041 188.359 220.857 188.536 220.609 188.559C220.361 188.581 220.466 188.425 220.422 188.335C220.237 187.966 220.236 187.826 220.176 187.404C220.079 186.735 219.973 185.992 219.814 185.288C219.802 185.245 219.865 185.167 219.838 185.124L219.153 185.203C219.096 185.08 218.83 184.703 218.874 184.604C218.918 184.505 219.029 184.491 219.064 184.328C219.098 184.165 218.928 184.215 218.892 184.171C218.792 184.05 219.019 183.832 219.06 183.725C219.104 183.601 219.11 183.352 219.176 183.235C219.243 183.118 219.368 183.079 219.368 183.016C219.366 182.872 219.246 182.42 219.206 182.251C219.076 181.75 218.905 181.24 218.764 180.747C218.701 180.519 218.565 180.19 218.523 179.993C218.463 179.711 218.657 179.685 218.652 179.624C218.629 179.425 218.487 179.319 218.47 179.147L218.293 179.191C218.301 179.047 218.457 178.823 218.458 178.702C218.46 178.58 218.382 178.566 218.386 178.512C218.389 178.457 218.506 178.359 218.495 178.33C218.483 178.3 218.418 178.267 218.419 178.194C218.42 178.121 218.53 178.094 218.546 178.073C218.562 178.052 218.615 177.887 218.691 177.756C218.766 177.625 218.743 177.489 218.973 177.357C219.203 177.226 219.49 177.217 219.796 177.347L219.786 177.346ZM220.681 180.814C220.775 180.895 220.671 180.988 220.67 181.075C220.676 181.532 221.111 181.216 221.093 181.106C221.076 180.997 220.854 180.923 220.792 180.864C220.731 180.805 220.745 180.626 220.626 180.758C220.508 180.891 220.681 180.814 220.683 180.819L220.681 180.814Z" fill="#6487F2"/>
<path d="M208.036 181.863C208.036 181.877 207.971 181.907 207.976 181.958C207.979 182.068 207.997 182.076 207.997 182.216C207.997 182.545 208.014 182.877 208.037 183.202C207.786 183.734 207.392 184.195 206.969 184.58L206.965 184.697C206.795 184.719 206.694 184.419 206.836 184.36L206.698 184.228C206.699 184.218 206.762 184.204 206.761 184.166C206.74 183.932 206.315 183.684 206.087 183.781C206.1 183.93 206.1 184.105 206.083 184.252C206.067 184.398 206.016 184.34 206.017 184.345C206.017 184.369 206.089 184.419 206.104 184.471C206.133 184.571 206.081 184.673 206.095 184.774C206.123 184.962 206.255 185.303 206.415 185.406C206.575 185.509 206.717 185.552 206.739 185.558C207.355 185.776 208.191 185.799 208.832 186.008C210.127 186.431 211.56 187.216 211.827 188.695C211.894 189.057 211.797 189.046 211.768 189.246C211.738 189.446 211.815 189.368 211.803 189.401C211.792 189.435 211.674 189.48 211.654 189.58C211.626 189.721 211.627 189.9 211.566 190.083C211.427 190.513 211.185 190.664 210.978 191.009C210.772 191.355 210.833 191.438 210.761 191.552C210.589 191.812 210.255 192.051 210.058 192.306C209.861 192.561 210.111 192.392 209.878 192.443L209.889 192.608C209.664 192.616 209.454 192.9 209.285 192.965C209.091 193.04 208.868 192.999 208.665 193.024C208.468 192.814 208.575 192.488 208.342 192.335C208.49 192.254 208.808 192.137 208.713 191.927C208.618 191.717 208.499 191.786 208.614 191.529C208.728 191.273 208.814 191.37 208.879 191.263C208.982 191.088 208.965 190.756 209.239 190.637L209.2 190.535C209.036 190.536 209.02 190.343 208.916 190.238C208.687 190.006 208.372 189.789 208.108 189.619C208.07 189.595 208.048 189.55 208.036 189.506L207.926 189.597C207.86 189.4 207.682 189.429 207.569 189.298L207.517 189.415C207.487 189.185 207.176 189.193 207.007 189.132C206.472 188.935 205.771 188.759 205.192 188.614C205.101 188.59 204.871 188.645 204.857 188.636C204.817 188.617 204.797 188.528 204.742 188.511C204.54 188.438 204.452 188.462 204.238 188.269C204.023 188.075 203.805 187.859 204.028 187.759L203.869 187.723C203.79 187.632 203.915 187.628 203.909 187.577C203.884 187.335 203.715 187.221 203.717 187.201C203.719 187.181 203.777 187.182 203.781 187.167C203.785 187.151 203.739 187.057 203.737 186.99C203.736 186.923 203.788 186.869 203.793 186.833C203.799 186.797 203.588 186.675 203.815 186.462L203.707 186.431C203.854 186.374 203.702 186.142 203.705 186.01C203.708 185.879 203.851 185.761 203.865 185.707C203.878 185.654 203.824 185.602 203.829 185.576C204.054 184.575 204.469 183.448 205.067 182.585C205.665 181.722 205.858 181.532 206.146 181.388C206.321 181.301 206.544 181.303 206.679 181.265C206.815 181.228 206.764 181.146 207.015 181.17C207.267 181.195 208.05 181.446 208.029 181.87L208.036 181.863Z" fill="#6487F2"/>
<path d="M188.508 187.432C188.512 187.441 188.44 187.468 188.448 187.489C188.474 187.571 188.607 187.602 188.65 187.663C188.82 187.903 188.606 188.116 188.633 188.338C188.675 188.713 188.941 189.293 189.065 189.667C189.189 190.04 189.23 190.286 189.324 190.53C189.418 190.775 189.572 191.175 189.591 191.202C189.611 191.228 189.676 191.169 189.688 191.213L189.624 191.286C189.704 191.56 189.97 191.898 190.041 192.147C190.112 192.395 190.037 192.25 190.008 192.3C190.143 192.287 190.2 192.41 190.064 192.447L190.164 192.482C190.24 192.603 190.097 192.609 190.169 192.722C190.242 192.834 190.276 192.71 190.318 192.781C190.36 192.852 190.276 192.986 190.442 193.053L190.323 193.122C190.373 193.277 190.502 193.387 190.577 193.533C190.652 193.678 190.63 193.871 190.797 193.98L190.679 194.05L190.854 194.152L190.797 194.344C190.951 194.304 191.051 194.478 190.877 194.555C190.889 194.623 190.944 194.563 190.989 194.594C191.163 194.706 191.008 194.732 190.991 194.85L191.127 194.826L191.336 195.448C191.577 195.684 191.664 196.391 191.912 196.596C192.16 196.801 191.963 196.654 192.025 196.625C192.167 196.566 192.458 196.329 192.616 196.224C193.243 195.815 193.926 195.364 194.507 194.962C194.805 194.756 194.899 194.759 195.196 194.639C195.331 194.588 195.557 194.38 195.672 194.505L195.763 194.427L195.961 194.69L195.766 194.813C195.98 194.968 195.771 195.193 195.779 195.326C195.786 195.458 195.84 195.486 195.834 195.508C195.828 195.529 195.609 195.613 195.559 195.71C195.509 195.807 195.575 195.829 195.544 195.885C195.464 196.032 195.488 196.018 195.436 196.134C195.384 196.251 195.194 196.348 195.17 196.401C195.147 196.453 195.219 196.464 195.211 196.506C195.192 196.697 195.051 196.746 194.96 196.888C194.87 197.029 194.941 197.05 194.876 197.133C194.811 197.216 194.745 197.183 194.744 197.193C194.724 197.23 194.769 197.348 194.755 197.373C194.74 197.398 194.668 197.373 194.624 197.399C194.011 197.716 192.746 198.303 192.266 198.729C192.097 198.881 192.021 199.036 192.094 199.264L191.951 199.271L191.992 199.376C191.845 199.398 191.896 199.442 191.805 199.52L191.922 199.572C191.845 199.737 191.745 199.655 191.651 199.749C191.556 199.843 191.398 200.213 191.467 200.279L191.306 200.288C191.281 200.297 191.311 200.363 191.301 200.376C191.2 200.502 191.064 200.351 191.05 200.352C191.005 200.35 190.956 200.46 190.883 200.382C190.91 200.202 190.794 200.252 190.772 200.221C190.569 199.931 190.623 199.655 190.188 199.971C189.289 200.63 188.448 201.301 187.533 201.967C187.458 202.025 187.32 201.991 187.282 202.17L187.171 202.12C186.979 202.238 187.099 202.259 187.087 202.293C187.027 202.514 186.654 202.512 186.549 202.644L186.603 202.72L186.465 202.677C186.455 202.903 186.215 202.995 186.259 202.707C186.11 202.822 185.602 202.887 185.834 203.112C185.796 203.19 185.635 203.048 185.595 203.02L185.323 203.154C185.026 202.909 185.584 202.903 185.626 202.708L185.398 202.796L185.325 202.732C185.268 202.797 185.148 202.887 185.068 202.83L184.948 202.392L185.239 202.329C185.075 202.179 185.032 202.017 185.278 201.927L185.07 201.765L185.239 201.7L185.156 201.597L185.249 201.411C185.643 201.516 185.308 201.161 185.316 201.144C185.342 201.124 185.383 201.142 185.404 201.134C185.589 201.048 185.401 201.063 185.393 201.056C185.261 200.976 185.445 200.712 185.615 200.787L185.543 200.476L185.72 200.432L185.646 200.364L185.711 200.218L185.849 200.262C185.793 200.08 185.983 200.07 186.116 200.014L186.17 200.09C186.032 200.134 186.148 200.336 186.103 200.445C186.057 200.554 185.937 200.731 185.879 200.884C185.822 201.037 185.732 201.308 185.659 201.52C185.725 201.567 185.759 201.554 185.826 201.528C185.894 201.502 186.269 201.281 186.371 201.208C186.791 200.916 187.115 200.449 187.565 200.184L187.491 200.116L187.938 199.833C188.445 199.261 189.077 198.878 189.688 198.354C190.041 198.049 189.716 197.733 189.609 197.402C189.501 197.071 189.476 196.829 189.353 196.533C188.951 195.574 188.582 194.245 188.276 193.221C187.97 192.196 187.956 192.197 187.854 191.704C187.752 191.211 187.847 191.561 187.926 191.54C187.865 191.457 187.744 191.557 187.735 191.42L187.862 191.372L187.728 191.162L187.803 191.104L187.772 191.024L187.665 190.997L187.616 190.745L187.733 190.797L187.517 190.473L187.608 190.356L187.49 190.164L187.659 190.1L187.458 190.08L187.411 189.958L187.538 189.909C187.52 189.761 187.448 189.813 187.43 189.805C187.273 189.711 187.526 189.701 187.513 189.604C187.5 189.508 187.36 189.585 187.33 189.505L187.474 189.377L187.333 189.262L187.486 189.155C187.183 189.01 187.398 188.739 187.419 188.552C187.439 188.365 187.36 188.221 187.396 188.14C187.432 188.058 187.718 187.997 187.723 187.883L187.621 187.869C187.502 187.697 187.663 187.675 187.705 187.595C187.868 187.276 187.919 187.145 188.35 187.183C188.387 187.203 188.509 187.422 188.511 187.451L188.508 187.432Z" fill="#6487F2"/>
<path d="M215.711 176.673C215.747 176.679 215.97 176.894 215.901 176.639L215.944 176.623C216.02 176.773 216.329 176.683 216.445 176.808C216.561 176.933 216.661 177.195 216.615 177.352C216.569 177.51 216.527 177.401 216.506 177.457C216.484 177.514 216.277 178.034 216.27 178.066C216.262 178.097 216.307 178.163 216.301 178.184C216.294 178.206 216.193 178.182 216.143 178.216C216.071 178.267 216.039 178.348 215.976 178.41C215.913 178.473 215.841 178.462 215.833 178.465C215.813 178.502 215.856 178.626 215.844 178.645C215.832 178.664 215.746 178.644 215.715 178.675C215.648 178.74 215.672 178.88 215.649 178.908C215.626 178.936 215.358 179.02 215.318 179.054C215.233 179.121 214.978 179.49 214.945 179.507C214.856 179.551 214.63 179.415 214.528 179.44C214.426 179.465 214.202 179.613 214.144 179.689C214.035 179.832 214.282 179.946 214.3 180.031C214.318 180.116 214.226 180.103 214.214 180.175C214.203 180.247 214.205 180.628 214.213 180.649C214.229 180.692 214.303 180.721 214.319 180.763C215.025 182.438 215.997 184.329 216.976 185.859C217.122 186.089 217.341 186.256 217.414 186.523L217.293 186.599L217.426 186.693L217.312 186.698L217.306 187.024C217.179 187.02 217.176 187.152 217.129 187.242L217.033 187.182L217.172 187.419C217.119 187.493 216.798 187.161 216.97 187.395C216.855 187.449 216.819 187.584 216.737 187.659C216.616 187.773 216.447 187.697 216.619 187.869L216.386 187.765C216.416 187.97 216.259 188.128 216.061 188.179L216.178 188.231C215.978 188.342 215.915 188.53 215.662 188.526L215.764 188.729C215.64 188.747 215.623 188.628 215.564 188.612C215.505 188.596 215.316 188.634 215.271 188.618C215.226 188.601 215.272 188.545 215.232 188.517C215.171 188.482 215.076 188.499 215.011 188.456L215.097 188.302L214.962 188.33C214.943 188.153 214.917 188.023 214.793 187.887L214.724 187.961L214.676 187.835L214.776 187.845C214.74 187.786 214.75 187.7 214.725 187.647C213.949 186.029 213.016 184.302 212.544 182.542C212.467 182.253 212.481 182.126 212.477 181.876C212.473 181.626 212.422 181.733 212.435 181.627C212.447 181.52 212.679 181.078 212.784 181.023L212.691 180.919C212.288 181.194 211.933 181.529 211.545 181.818C210.985 182.236 210.417 182.56 209.935 183.055C209.608 183.388 209.381 183.277 208.959 183.26C208.889 182.953 208.81 182.596 209.177 182.455L209.018 182.279L209.114 182.165L209.026 182.174L209.024 182.054C209.25 182.04 209.196 181.761 209.283 181.645C209.369 181.53 209.596 181.414 209.706 181.285C209.742 181.242 209.839 181.002 209.873 180.964C210.174 180.689 210.717 180.403 211.054 180.158C212.405 179.166 213.651 178.011 214.947 177.078C215.122 176.953 215.459 176.635 215.703 176.677L215.711 176.673Z" fill="#6487F2"/>
<path d="M191.604 182.728L191.551 182.651C191.639 182.579 191.769 182.665 191.836 182.639C191.904 182.613 191.958 182.515 192.07 182.467C192.653 182.233 194.01 182.139 194.059 183.034C194.065 183.138 194 183.221 194.01 183.285C194.036 183.556 193.956 184.269 193.851 184.536C193.561 185.281 193.023 186.237 192.541 186.96C192.058 187.682 192.21 187.662 191.862 187.801L191.936 187.869C191.818 187.914 191.754 187.987 191.672 187.873L191.599 187.998C191.521 187.757 191.601 187.46 191.632 187.202C191.663 186.943 191.653 186.865 191.668 186.651C191.682 186.437 192.021 185.592 191.948 185.377L191.754 185.375L191.763 185.274C191.084 185.356 190.441 185.661 189.834 185.971C188.868 186.467 187.888 187.065 186.974 187.634C186.224 188.1 185.516 188.575 184.838 189.126C184.734 189.209 184.527 189.274 184.46 189.377C184.393 189.48 184.449 189.575 184.42 189.639C184.391 189.703 184.309 189.716 184.294 189.741C184.28 189.765 184.366 189.815 184.336 189.899C184.295 190.021 184.148 190.266 183.996 190.237C184.158 190.456 183.931 190.76 183.662 190.752L183.795 190.861C183.795 191.088 183.484 191.072 183.611 191.251L183.46 191.236L183.53 191.04C183.267 191.16 183.184 191.173 183.222 190.868C183.116 190.995 182.511 191.247 182.413 191.154C182.353 191.085 182.474 191.073 182.463 191.033C182.453 190.994 182.384 190.952 182.384 190.865C182.385 190.778 182.508 190.556 182.508 190.469C182.509 190.382 182.427 190.22 182.446 190.092C182.477 189.896 182.969 188.846 183.097 188.7C183.225 188.554 183.245 188.643 183.269 188.605C183.293 188.567 183.279 188.48 183.307 188.44C183.347 188.382 183.436 188.41 183.476 188.376C183.551 188.308 183.517 188.079 183.77 188.147L183.723 188.024C183.917 187.974 184.009 187.774 184.155 187.636C184.3 187.498 184.621 187.162 184.8 187.011C184.98 186.86 185.106 186.875 185.18 186.803C185.254 186.731 185.201 186.693 185.204 186.687C185.226 186.669 185.308 186.696 185.353 186.674C185.398 186.652 185.351 186.592 185.38 186.567C186.139 185.884 187.161 185.332 188.008 184.741C188.065 184.7 188.029 184.631 188.058 184.62C189.132 184.165 190.163 183.334 191.226 182.8C191.368 182.731 191.458 182.75 191.607 182.722L191.604 182.728Z" fill="#6487F2"/>
<path d="M240.319 167.384L240.16 167.348C240.098 167.285 240.303 167.216 240.122 167.16C239.811 167.057 239.385 167.307 239.1 167.383C237.977 167.673 236.779 167.929 235.731 168.452C235.159 168.739 233.787 169.74 233.251 169.781C233.194 169.784 233.208 169.667 233.013 169.79C232.943 169.836 232.747 170.042 232.711 170.114C232.691 170.161 232.736 170.443 232.63 170.532C233.03 170.693 232.687 170.781 232.662 170.931C232.633 171.107 232.839 171.255 232.84 171.371C232.84 171.395 232.771 171.417 232.781 171.442C232.813 171.526 232.954 171.603 232.9 171.754C233.066 171.744 233.262 171.625 233.361 171.819C233.561 171.573 233.528 171.726 233.601 171.727C233.778 171.722 234.226 171.502 234.399 171.436C235.04 171.19 235.609 170.933 236.232 170.766C236.217 170.791 236.201 170.812 236.182 170.839L236.365 170.938L236.138 170.976L236.187 171.103L236.406 171.043L236.151 171.262C236.234 171.365 236.304 171.295 236.378 171.223L236.435 171.371L236.274 171.456L236.482 171.619L236.359 171.69C236.431 171.967 236.664 172.221 236.627 172.502C236.908 172.529 236.703 172.574 236.75 172.696C236.774 172.76 236.9 172.784 236.891 172.812C236.89 172.822 236.804 172.811 236.825 172.905C236.918 173.285 237.225 173.709 237.256 174.142C237.427 174.135 237.428 174.541 237.486 174.692C237.83 175.625 238.156 176.477 238.442 177.359C238.48 177.485 238.547 177.658 238.507 177.77C238.696 177.808 238.756 178.293 238.841 178.464C238.882 178.545 239.054 178.59 239.069 178.73C239.272 178.705 239.394 178.605 239.556 178.499L239.397 178.463C239.783 178.398 239.391 177.992 239.674 177.922C239.556 177.856 239.676 177.839 239.671 177.764C239.648 177.54 239.527 177.49 239.691 177.325C239.72 177.3 239.772 177.309 239.775 177.303C239.788 177.249 239.716 177.151 239.716 177.112C239.715 177.098 239.717 176.875 239.72 176.845C239.727 176.775 239.821 176.743 239.822 176.67C239.83 176.551 239.685 176.162 239.592 176.071L239.719 176.023C239.648 175.914 239.523 175.851 239.448 175.745C239.185 175.376 239.057 174.864 238.861 174.455C238.487 173.67 238.066 172.874 237.667 172.112C237.564 171.919 236.995 170.725 236.921 170.671C236.881 170.643 236.802 170.688 236.792 170.648C236.792 170.648 236.792 170.648 236.79 170.644C236.84 170.635 236.895 170.628 236.946 170.623C237.265 170.583 237.754 170.332 238.105 170.29C238.161 170.283 238.234 170.448 238.42 170.266L238.41 170.366L239.202 170.159L239.187 170.31C239.602 170.446 240.04 170.176 240.126 169.756C240.135 169.704 240.084 169.647 240.121 169.541C240.159 169.439 240.322 169.284 240.336 169.207C240.345 169.155 240.299 169.11 240.295 169.087C240.294 169.058 240.362 169.047 240.353 169.011C240.282 168.801 240.328 168.92 240.325 168.761C240.324 168.645 240.249 168.287 240.349 168.205C240.386 168.176 240.466 168.184 240.467 168.174C240.5 168.045 240.344 168.154 240.335 168.08L240.41 168.051C240.418 168.019 240.241 167.685 240.363 167.663L240.246 167.47L240.317 167.39L240.319 167.384Z" fill="#6487F2"/>
</g>
<path d="M94.1811 100.497C94.1811 100.566 94.1811 103.77 94.3147 111.023C94.4805 120.025 95.4203 127.08 96.2214 130.374C96.6752 132.239 97.5508 133.05 100.685 135.062C108.461 140.053 114.61 143.238 116.259 144.294C118.752 145.89 123.532 145.961 134.673 143.546C143.139 141.711 156.714 136.261 167.334 132.983C177.955 129.704 185.056 128.155 190.199 127.02C198.315 125.229 203.327 123.805 206.55 122.631C211.007 121.007 216.632 118.892 220.991 116.916C223.025 115.994 224.124 114.937 224.5 114.018C224.69 113.554 224.607 113.006 224.466 112.536C223.781 110.241 219.078 107.695 215.724 105.796C213.202 104.368 211.23 102.708 209.951 100.51C207.416 96.1506 208.941 89.5897 208.583 83.0102C208.264 77.1313 207.83 66.087 207.491 59.8575C207.093 52.5374 206.358 50.5497 205.54 48.9873C204.357 46.7269 200.671 45.3735 189.925 43.586C177.918 41.5886 169.414 43.3447 167.375 43.6698C164.579 44.1156 159.694 45.0485 147.819 47.5865C139.204 49.4277 125.22 51.8419 117.307 53.4215C105.137 55.8511 102.226 58.9019 99.7662 62.0481C96.885 65.7332 94.1429 73.7058 93.3544 80.1685C92.5199 87.0089 92.6049 92.3413 93.0084 97.4176C93.1269 98.7887 93.2514 100.066 93.4265 101.758C93.498 102.692 93.534 103.783 93.7374 104.961" stroke="#6487F2" stroke-width="2" stroke-linecap="round"/>
<path d="M135.458 165.262C135.458 165.297 135.458 166.581 135.413 168.783C135.278 170.292 135.185 171.483 135.418 172.458C135.652 172.83 136.119 172.951 137.675 173.076" stroke="#6487F2" stroke-width="2" stroke-linecap="round"/>
<path d="M135.906 164.842C136.045 164.842 136.649 164.705 139.034 163.975C144.075 162.432 152.009 159.265 159.689 156.172C163.625 154.587 167.944 154.033 173.286 152.599C180.715 150.604 187.079 147.966 195.328 145.036C198.62 143.867 206.44 141.296 213.434 138.045C216.192 136.763 218.906 136.608 220.878 137.278C221.192 137.637 221.362 138.121 221.596 138.613C221.83 139.105 222.122 139.589 222.184 141.172" stroke="#6487F2" stroke-width="2" stroke-linecap="round"/>
<path d="M216.866 141.538C216.24 141.651 212.61 143.253 207.396 146.223C203.847 148.245 199.596 148.811 196.528 149.981C196.019 150.175 195.547 150.381 191.345 151.843C187.143 153.305 179.232 156.034 173.437 157.866C164.268 160.765 160.104 161.65 158.033 162.289C150.764 164.533 147.057 165.06 144.287 166.378C142.371 167.289 140.898 168.804 139.713 170.39C138.319 172.257 142.26 176.343 144.392 179.512C145.662 181.399 150.411 186.363 155.908 193.499C161.632 200.931 167.865 207.85 171.171 210.959C174.16 213.77 180.743 218.861 188.279 226.177C197.321 234.953 199.375 238.196 200.778 240.905C201.105 241.536 201.862 241.702 205.394 244.685C208.926 247.668 215.348 253.371 220.088 257.764C227.819 264.928 232.613 269.793 235.89 272.539C237.155 273.599 237.768 273.793 238.852 273.92C241.498 274.231 248.7 271.704 259.093 267.02C268.091 262.964 272.74 259.891 275.16 258.824C276.772 258.113 279.026 256.768 283.877 254.462C288.728 252.156 296.072 248.855 300.411 246.765C307.937 243.14 310.729 239.894 313.05 237.964C316.311 235.252 320.013 232.121 324.228 228.576C325.143 227.807 325.685 227.339 325.928 226.763C326.423 225.593 324.295 222.781 321.346 219.266C319.351 216.888 315.121 212.849 305.934 205.826C300.45 201.633 292.612 197.1 288.458 194.475C283.859 191.569 280.475 189.278 274.299 184.573C267.012 179.022 263.76 173.583 261.313 171.683C257.143 168.445 251.794 165.297 246.729 162.343C237.801 157.136 233.804 152.77 228.63 148.662C225.508 146.184 222.786 144.432 220.817 143.147C220.288 142.895 219.672 142.686 218.771 142.576C217.869 142.466 216.701 142.461 215.497 142.455" stroke="#6487F2" stroke-width="2" stroke-linecap="round"/>
<path d="M144.996 170.878C145.576 171.753 147.518 174.767 150.75 179.336C153.009 182.528 156.944 187.186 163.789 194.285C170.634 201.384 180.378 210.703 186.569 216.759C195.213 225.216 198.787 228.944 201.303 231.08C208.065 236.821 216.722 243.687 219.258 245.6C219.662 245.905 220.199 245.928 226.463 243.325C232.727 240.722 244.755 235.4 251.625 232.255C258.494 229.111 259.84 228.306 263.89 226.321C267.939 224.337 274.652 221.198 279.174 218.821C291.248 212.473 296.652 207.732 296.879 206.738C297.262 205.069 293.642 202.198 289.17 198.028C284.089 193.29 278.955 189.82 275.803 187.534C274.133 186.322 271.841 184.639 268.675 182.541C266.81 181.305 261.368 177.76 253.388 172.097C248.401 168.558 245.696 166.229 241.992 163.47C235.394 158.554 230.306 153.932 227.644 152.057C223.339 149.025 219.452 146.921 216.796 146.195C215.664 145.885 211.114 147.31 203.446 150.297C199.651 151.775 196.157 153.445 190.886 155.167C185.615 156.889 178.7 158.68 173.257 160.333C163.959 163.157 157.888 166.196 154.087 168.242C151.9 169.361 150.676 169.866 149.32 170.244C148.495 170.445 147.392 170.665 145.223 170.891" stroke="#6487F2" stroke-width="2" stroke-linecap="round"/>
<path d="M144.07 181.349C143.321 181.403 137.276 183.496 130.99 185.803C124.361 188.236 118.466 186.846 110.735 185.359C108.1 184.852 104.084 182.51 97.0458 178.722C88.8464 174.309 82.2369 172.263 78.4432 170.899C73.6611 169.179 69.8349 167.219 66.3493 165.848C57.3423 162.306 54.5223 161.23 47.5241 158.478C42.688 156.576 34.1514 152.176 29.1166 149.849C20.5821 145.904 16.4222 144.212 13.4423 142.45C8.23077 139.369 7.46294 136.79 5.95676 132.657C3.6307 126.273 2.11616 116.247 1.47428 113.118C1.19623 111.763 0.831174 110.739 1.08631 109.891C1.75534 107.667 8.90022 104.349 12.7619 101.385C15.8557 99.0097 20.4517 94.8416 23.6473 92.2345C26.5738 89.8469 28.6232 87.533 31.283 84.1341C33.0957 81.8177 37 78.7296 40.4713 76.4659C41.5329 75.8705 42.6143 75.2324 43.9062 74.3932C44.5875 73.9236 45.3208 73.3654 46.5385 72.3651" stroke="#6487F2" stroke-width="2" stroke-linecap="round"/>
<path d="M44.5325 129.128C44.818 128.64 46.0199 126.75 47.1591 123.143C47.9112 120.762 48.3712 117.613 48.7064 112.766C48.9165 109.728 48.822 105.496 48.7921 98.7812C48.7623 92.0668 48.7013 82.9933 48.7064 77.3027C48.7161 66.7143 49.5195 64.2022 49.7507 60.9824C49.9518 58.1821 52.3054 56.4359 53.9151 54.3211C55.8305 51.8049 62.743 47.9009 66.9692 45.5397C72.6139 43.647 81.01 41.3966 84.256 41.0046C85.0456 40.9173 85.8674 40.8099 87.6513 40.5773" stroke="#6487F2" stroke-width="2" stroke-linecap="round"/>
<path d="M2.06641 110.042C2.71361 110.239 5.29999 111.227 8.67562 112.588C10.8575 113.467 12.3941 114.826 13.9564 116.006C16.4146 117.863 24.1403 121.664 33.6376 126.306C37.8535 128.367 39.5907 128.335 42.2144 129.359C47.3508 131.363 51.969 134.176 55.9373 136.36C61.3469 139.337 67.8697 141.846 72.6564 144.542C76.3213 146.605 81.6586 147.863 93.6436 151.484C101.862 153.968 106.125 156.186 110.125 156.996C113.392 157.657 120.654 157.763 127.31 157.115C131.317 156.724 135.512 154.105 144 152.42C146.31 151.961 147.532 151.88 149.521 151.541C152.75 150.991 159.686 148.72 167.571 145.818C172.871 143.867 177.764 141.905 187.646 138.511C192.892 136.71 199.698 135.666 206.75 133.347C216.079 129.85 220.168 128.624 222.306 127.725C222.879 127.427 223.514 127.105 224.756 125.938" stroke="#6487F2" stroke-width="2" stroke-linecap="round"/>
<path d="M226.251 114.316C226.262 116.112 226.702 121.854 227.141 124.972C227.702 128.959 226.59 130.886 225.381 135.688C225.062 136.974 224.831 137.99 224.631 138.74C224.431 139.49 224.268 139.944 223.911 141.101" stroke="#6487F2" stroke-width="2" stroke-linecap="round"/>
<path d="M73.2941 168.301C73.21 167.769 72.3997 165.166 71.3591 161.824C70.7467 159.857 70.4893 158.072 70.2647 155.666C69.837 151.085 70.2016 144.179 70.3292 136.193C70.4573 128.179 70.5049 122.4 70.0656 119.554C69.7947 117.799 69.7013 116.283 69.4356 110.568C69.2113 105.742 69.2901 96.9902 69.3572 90.4818C69.4656 79.9673 69.828 74.6499 69.9388 72.4523C70.163 68.0063 71.1496 62.7651 72.6722 60.3231C74.8905 56.7654 77.1404 55.9037 81.027 53.0708C83.5633 51.6162 85.3004 50.6471 86.1289 50.0795C86.5571 49.7853 87.0012 49.4784 87.5938 49.0236" stroke="#6487F2" stroke-width="2" stroke-linecap="round"/>
<path d="M109.758 55.2798C108.836 55.2798 106.006 55.0369 101.917 54.2724C97.0761 53.3671 93.7061 52.5841 90.0973 51.4898C89.3715 51.2698 88.8759 51.0993 88.4147 50.8139C84.5392 48.4155 87.5013 37.9378 88.1362 35.4863C88.8073 32.8945 89.7388 28.3604 91.0595 25.1957C92.8049 21.0132 99.2543 16.6864 103.199 14.7054C105.805 13.3969 109.152 13.4697 121.656 9.39634C128.741 7.08819 135.299 6.64672 140.318 6.18481C143.803 5.86416 145.66 5.32226 146.74 5.08392C147.9 4.82796 155.413 4.07484 166.183 2.73974C170.841 2.16234 172.401 1.99172 178.223 1.65427C183.26 1.36228 192.55 1.31073 197.614 1.18489C203.241 1.04504 206.248 0.91343 211.126 1.07305C215.986 1.23206 220.958 1.88545 225.049 2.01057C230.668 2.18243 239.054 3.03068 241.897 4.22829C244.025 5.12476 244.92 8.23969 245.495 10.7321C246.507 15.1148 246.743 27.6265 246.205 34.0649C246.147 34.7567 245.662 35.2876 245.195 35.7056C244.244 36.5563 240.743 36.6484 233.818 36.661C224.022 36.6787 217.391 36.6869 215.486 36.8726C214.45 36.9736 213.264 36.948 208.192 37.783C203.12 38.618 194.195 40.2786 188.178 41.1368C175.912 42.0666 174.404 42.2459 173.325 42.3419C172.775 42.3812 172.223 42.4014 171.237 42.4739" stroke="#6487F2" stroke-width="2" stroke-linecap="round"/>
<path d="M128.769 50.6466C128.769 49.7369 130.08 42.253 132.907 31.5759C134.33 26.1998 138.387 19.5068 144.454 15.977C149.482 13.0516 152.235 13.7359 155.427 13.2212C159.013 12.6432 163.057 11.6472 166.099 10.9857C167.861 10.6024 173.6 10.5004 183.009 10.1293C190.504 9.83372 194.487 9.03264 198.642 8.58576C202.108 8.213 208.295 7.24514 212.995 6.74842C225.057 5.47353 229.152 5.18012 232.9 4.65943C235.963 4.234 238.505 4.74168 239.776 5.21077C241.993 6.02871 243.682 8.07631 245.053 9.67275C245.293 10.107 245.485 10.5694 245.709 11.102C245.932 11.6346 246.18 12.2233 246.497 13.0776" stroke="#6487F2" stroke-width="2" stroke-linecap="round"/>
<path d="M234.846 14.4475C233.478 14.4561 224.261 15.5313 216.688 16.8501C209.357 18.1269 204.709 18.0304 199.712 18.7567C198.314 18.9599 197.408 19.4354 196.51 19.7894C194.662 20.5178 194.379 23.6531 194.176 30.0719C194.119 31.8942 194.966 32.9701 195.84 34.0147C197.683 36.2164 205.918 34.0802 212.028 32.4158C213.822 31.9269 217.79 31.7139 224.701 31.0623C232.758 30.3028 237.486 28.8907 238.252 27.9134C240.725 24.7615 239.979 19.6297 239.1 17.1967C238.723 16.8654 238.23 16.6451 237.749 16.4762C237.267 16.3072 236.811 16.1962 236.112 16.0818" stroke="#6487F2" stroke-width="2" stroke-linecap="round"/>
<path d="M232.909 15.8506V28.1296" stroke="#6487F2" stroke-width="2" stroke-linecap="round"/>
<path d="M229.637 17.4298C229.637 17.4671 229.637 17.5043 229.637 19.1487C229.637 20.7931 229.637 24.0435 229.511 28.5294" stroke="#6487F2" stroke-width="2" stroke-linecap="round"/>
<path d="M148.156 33.4766C148.156 33.5108 148.198 34.0756 148.504 34.977C148.792 35.826 152.196 35.6248 157.574 35.403C163.862 35.1438 170.106 33.7702 175.184 32.9019C181.21 31.8719 183.288 31.8582 184.314 31.555C184.748 31.4265 184.748 30.8125 184.514 30.5328C183.973 29.8869 177.663 30.1231 167.634 30.2613C155.521 31.0868 152.949 31.4536 151.54 31.6649C150.831 31.7657 150.137 31.8535 148.769 32.0254" stroke="#6487F2" stroke-width="2" stroke-linecap="round"/>
<path d="M194.627 20.1196C192.233 20.133 185.821 20.4909 180.415 21.0273C178.811 21.1865 177.848 21.6588 176.507 22.1227C174.501 22.8172 166.861 23.8646 156.741 25.8512C149.752 27.2233 147.042 27.4749 144.321 28.1676C142.97 28.5113 141.821 29.9354 140.739 31.5652C138.823 34.4508 139.231 40.8485 140.004 44.313C140.502 46.5477 147.916 45.6352 156.142 44.9664C159.172 44.7199 163.85 44.7181 168.518 44.2733C173.186 43.8285 177.707 43.0257 181.968 42.0698C190.141 40.236 195.883 38.8164 200.319 38.264C202.965 37.9347 206.333 36.9906 211.179 35.576C216.025 34.1614 222.226 32.1732 225.853 31.0785C229.48 29.9838 230.345 29.8429 231.79 29.5165" stroke="#6487F2" stroke-width="2" stroke-linecap="round"/>
<path d="M109.98 108.914C108.929 108.914 105.733 109.31 103.377 110.758C101.929 111.647 101.334 113.089 100.978 114.197C100.518 115.628 100.546 117.367 100.729 119.089C100.923 120.911 102.066 122.196 102.919 123.027C104.506 124.572 106.972 124.486 109.848 124.463C111.165 124.452 112.006 123.456 112.637 122.625C114.29 120.444 113.928 114.437 113.385 111.163C112.106 109.477 110.36 108.21 107.988 107.662C107.243 107.601 106.345 107.601 105.284 107.882" stroke="#6487F2" stroke-width="2" stroke-linecap="round"/>
<path d="M193.322 85.2786C192.683 85.3537 190.537 86.1027 188.724 87.7289C187.056 89.2239 187.111 92.5478 187.075 98.7403C187.063 100.869 187.961 102.358 188.944 103.639C189.733 104.668 190.691 105.143 191.85 105.384C195.022 106.043 197.274 103.721 199.025 102.02C201.208 99.9006 200.879 95.0514 200.283 92.3252C198.688 90.2328 195.881 88.2936 193.847 87.2119C193.422 86.9649 193.004 86.6971 192.516 86.3361" stroke="#6487F2" stroke-width="2" stroke-linecap="round"/>
<path d="M130.51 57.1433C130.661 57.6871 131.833 60.0596 133.529 61.4054C134.318 62.0316 136.297 61.6974 141.577 61.1027C145.617 60.6476 152.353 59.3605 157.455 58.4489C169.692 56.2626 171.954 56.1313 173.735 55.4456C174.688 55.0786 173.399 53.2827 172.898 52.3019C171.069 48.7261 157.272 51.3576 150.796 52.4215C144.59 53.4412 142.449 53.4033 139.73 53.6442C137.094 54.0069 134.441 54.3746 132.621 54.6309C131.849 54.7609 131.383 54.8908 130.553 55.2188" stroke="#6487F2" stroke-width="2" stroke-linecap="round"/>
<path d="M141.794 64.3383C141.265 64.7275 139.498 66.7965 137.893 69.7039C136.404 72.4016 135.015 75.6239 133.286 80.1245C130.141 88.3129 131.431 94.1921 133.354 99.6834C134.865 104 139.631 107.225 147.692 111.081C152.829 113.539 162.347 110.677 168.116 106.941C174.343 102.908 176.732 95.9611 178.881 89.3345C181.345 81.7345 178.901 74.7365 175.46 69.2563C172.359 64.3161 169.042 61.3574 166.24 59.5656C161.676 56.6478 153.242 57.3062 148.402 58.0547C143.348 60.8957 141.831 62.3585 140.722 63.6139C140.276 64.2129 140.068 64.7345 139.853 65.2719" stroke="#6487F2" stroke-width="2" stroke-linecap="round"/>
<path d="M151.55 65.0756C150.996 65.2525 147.994 66.9929 145.079 70.3856C142.466 73.4269 141.037 77.6517 139.44 81.7195C137.68 86.2001 139.42 92.0068 141.162 95.1807C142.97 98.4763 145.843 100.683 148.587 102.374C153.241 105.24 160.982 104.376 164.542 103.925C166.716 103.649 168.054 101.109 169.51 99.0046C172.772 94.288 174.975 88.0412 175.296 81.822C175.462 78.606 172.959 74.6332 168.951 69.0131C165.658 66.1332 161.844 64.6885 157.697 63.8463C155.837 63.5519 154.473 63.5275 153.182 63.5023" stroke="#6487F2" stroke-width="2" stroke-linecap="round"/>
<path d="M148.129 75.0642C150.583 74.988 156.022 75.193 157.023 75.9943C159.73 78.162 159.572 80.9176 159.509 85.6969C159.461 89.358 155.287 92.1089 152.64 93.5739C152.169 93.8347 151.569 93.6154 151.019 93.2655C147.647 91.1203 146.405 86.1051 145.69 83.1405C145.186 81.053 145.712 79.2659 146.396 77.9858C148.26 74.4997 150.192 73.3151 152.346 71.7958C154.2 70.4885 157.827 70.8288 160.415 72.096C163.331 73.5243 163.281 78.3642 163.807 83.0692C164.433 88.6765 162.427 91.1925 161.095 93.2124C160.444 94.2002 158.967 95.222 156.993 96.206C155.143 97.1275 153.43 96.5064 152.465 96.1469C151.976 95.8937 151.488 95.4965 151.211 95.054C150.934 94.6115 150.883 94.1356 150.83 92.7765" stroke="#6487F2" stroke-width="2" stroke-linecap="round"/>
<path d="M180.125 47.1934C180.089 47.1934 179.443 47.1934 178.312 47.3477C177.345 47.4797 176.838 48.6352 176.344 49.902C173.668 56.7592 175.798 68.9929 176.807 72.4287C178.569 78.4267 182.292 80.1489 185.332 81.2904C187.624 82.151 190.174 81.0044 192.244 79.8986C195.078 78.3846 199.201 79.1607 201.288 77.6447C205.111 74.8682 204.662 70.0263 204.778 61.4338C204.852 55.9072 203.587 52.365 202.283 50.4868C200.325 49.1363 197.691 48.12 191.386 47.4209C188.572 47.3339 184.332 47.3339 179.964 47.3339" stroke="#6487F2" stroke-width="2" stroke-linecap="round"/>
<path d="M194.217 48.8185C194.292 49.4187 194.985 52.199 196.02 58.7937C196.795 63.7286 196.078 70.0418 194.826 72.9504C193.887 75.1307 190.258 75.2446 186.848 75.8582C186.125 76.0196 185.606 76.1983 184.939 76.4426C184.273 76.6869 183.477 76.9913 182.092 77.4307" stroke="#6487F2" stroke-width="2" stroke-linecap="round"/>
<path d="M188.816 48.4508C188.89 49.3181 189.584 53.3743 190.026 57.2723C190.763 63.7761 188.193 67.1562 186.267 69.3156C184.395 70.2986 182.875 70.6268 181.927 70.7992C181.449 70.8874 180.977 70.9771 179.798 71.3579" stroke="#6487F2" stroke-width="2" stroke-linecap="round"/>
<path d="M181.384 53.5512C181.373 54.8085 181.257 58.7248 181.377 60.5764C181.495 62.3969 184.986 58.7688 185.949 57.8512C185.742 57.0702 184.301 56.1481 182.507 55.1836C181.74 54.778 181.264 54.5425 180.389 53.9653" stroke="#6487F2" stroke-width="2" stroke-linecap="round"/>
<path d="M69.2518 106.884C69.2165 106.884 68.3942 106.884 67.0459 107.362C63.7779 108.519 65.6157 116.164 66.3825 119.417C66.4965 119.901 67.1843 120.027 67.8715 120.155C68.5587 120.283 69.4592 120.283 69.9896 119.93C70.8906 117.511 71.2975 114.775 71.2533 110.222C71.1048 109.295 70.8077 108.921 69.3979 108.392" stroke="#6487F2" stroke-width="2" stroke-linecap="round"/>
<defs>
<clipPath id="clip0_182_375">
<rect width="92.5077" height="69.3807" fill="white" transform="translate(162.368 178.891) rotate(-20.9861)"/>
</clipPath>
</defs>
</svg>
