<svg width="256" height="523" viewBox="0 0 256 523" fill="none" xmlns="http://www.w3.org/2000/svg">
<path d="M55.2168 118.959C55.7846 122.593 56.2085 130.017 55.5042 135.035C54.8887 139.42 53.1451 143.662 52.0693 148.729C51.1478 153.069 50.4314 157.262 48.8974 162.892C46.9857 169.91 47.6205 174.949 47.353 181.587C46.6814 198.256 53.2746 201.722 56.5996 205.2C60.0645 208.825 65.9039 208.918 70.4879 209.68C75.3198 210.483 80.5753 210.06 85.3138 210.634C90.6373 211.278 95.8648 210.449 100.947 210.799C107.458 211.248 114.132 210.775 119.077 211.49C126.424 212.553 133.174 211.347 138.273 211.874C145.433 212.614 150.03 212.204 156.298 211.901C161.532 211.647 166.731 212.063 172.999 211.759C177.957 211.519 182.495 213.062 189.943 213.282C198.339 213.531 204.514 211.218 206.359 209.964C210.291 207.288 210.081 201.678 211.286 197.44C212.491 193.206 214.043 188.934 213.815 183.87C213.582 178.686 214.107 172.644 214.281 166.656C214.418 161.918 214.218 151.946 213.767 143.136C213.358 135.139 211.044 129.201 209.151 127.752C205.61 125.041 200.03 125.208 195.238 124.295C189.981 123.293 185.305 123.726 179.944 123.911C175.164 124.076 170.016 123.337 165.113 122.963C160.219 122.59 154.923 121.924 149.483 121.605C144.054 121.286 138.95 119.586 134.366 118.824C129.782 118.062 125.215 117.303 120.631 116.541C115.799 115.738 110.544 116.161 105.934 115.234C101.024 114.247 96.6531 112.879 91.2918 113.064C86.16 113.241 80.8892 111.879 75.5279 112.065C68.3168 112.313 59.0348 114.711 55.4619 118.066C54.8547 118.996 54.6485 120.031 54.6453 121.224C54.6421 122.416 54.848 123.734 54.9042 124.094" stroke="white" stroke-width="3" stroke-linecap="round"/>
<path d="M117.647 140.36C115.524 140.973 112.299 144.094 109.151 147.739C106.192 151.166 105.275 156.218 102.982 160.598C100.773 164.819 101.97 175.601 104.213 182.853C105.48 186.951 109.093 190.362 113.566 192.845C117.942 195.274 122.874 195.37 128.235 195.185C133.016 195.02 138.885 195.665 146.296 195.543C161.773 195.29 165.643 190.828 169.396 187.45C173.309 183.928 174.556 178.804 175.364 174.449C176.878 166.293 172.083 155.692 168.721 152.05C165.586 148.654 161.945 145.461 157.93 142.419C153.703 139.215 148.469 137.703 143.886 136.941C139.302 136.179 134.117 136.173 128.339 136.081C119.426 137.407 115.274 139.304 111.262 142.201C110.269 143.014 109.29 143.814 106.409 146.921" stroke="white" stroke-width="3" stroke-linecap="round"/>
<path d="M117.022 150.63C114.95 151.573 111.83 155.363 110.625 159.601C109.453 163.722 110.299 171.824 113.236 177.6C115.285 181.63 120.012 184.189 124.779 186.12C129.096 187.868 133.956 187.811 138.54 188.573C145.483 189.727 154.874 186.12 158.833 182.883C160.805 181.271 162.844 179.976 164.508 178.745C167.965 176.187 166.597 170.672 164.429 156.726C163.784 152.577 160.941 151.023 159.047 149.573C155.386 146.77 149.873 146.69 145.16 145.099C140.73 143.604 131.759 144.631 125.335 146.652C121.298 149.389 118.228 151.145 116.282 152.922C115.314 153.899 114.387 155.029 113.275 155.195" stroke="white" stroke-width="3" stroke-linecap="round"/>
<path d="M159.165 120.677C158.649 117.372 159.051 110.524 160.436 106.262C160.789 105.177 161.392 104.105 163.848 103.265C166.303 102.425 170.629 101.86 173.116 102.04C175.602 102.22 176.117 103.162 176.099 104.188C175.514 106.297 174.364 108.495 173.891 112.607C173.985 115.636 174.758 120.578 175.553 125.671" stroke="white" stroke-width="3" stroke-linecap="round"/>
<path d="M147.313 78.0826C148.138 83.3648 149.085 94.1332 150.086 98.2565C151.437 103.822 163.625 97.0043 168.363 97.578C173.687 98.2226 178.296 98.1464 183.061 98.885C185.865 99.3197 188.866 99.1514 191.154 98.3484C195.226 96.9196 193.352 89.7627 194.133 85.2338C194.315 84.1783 194.548 83.1469 194.758 82.0956C194.967 81.0443 195.173 80.0087 192.936 79.7811C180.097 78.4746 175.482 79.8476 170.898 79.0856C166.314 78.3235 161.747 77.5643 156.36 77.5847C155.025 77.4227 153.84 76.9048 152.464 75.3727" stroke="white" stroke-width="3" stroke-linecap="round"/>
<path d="M145.284 86.4985C142.749 86.8293 137.966 89.4708 134.086 93.2121C130.205 96.9534 127.084 98.3797 125.265 98.6221C119.289 99.4187 123.161 85.3302 123.2 79.553C123.217 77.1455 123.074 75.1424 121.779 73.9512C117.124 69.6702 105.612 75.047 100.975 73.9455C99.8437 73.6767 98.6918 73.5659 98.2112 72.9511C95.4391 69.4053 103.853 64.0689 107.606 60.6906C109.463 59.0186 110.522 56.7388 111.104 55.644C113.285 51.5381 102.127 52.7398 98.32 49.8489C93.6796 46.3253 88.3931 43.3243 83.9818 40.1708C79.796 37.1785 95.3638 40.7029 121.284 36.9945C126.34 36.2711 125.99 34.363 125.627 33.2132C124.946 31.0612 122.982 22.2436 121.419 11.0614C120.963 7.80054 121.709 9.38823 122.311 10.8483C124.427 15.9843 129.188 19.2941 134.163 22.5574C138.4 25.3374 143.497 25.2519 147.433 27.7899C148.401 28.4142 149.584 28.5332 150.657 28.2302C155.618 26.8289 159.991 23.7924 164.159 21.8883C168.326 19.9843 172.478 18.0874 177.295 16.7711C178.252 16.5095 178.784 17.9167 178.56 18.8018C177.475 23.0874 172.777 26.8516 171.2 31.138C169.716 35.1742 169.536 39.5012 169.063 43.6436C168.947 44.6518 169.729 45.5893 170.896 45.9567C176.595 47.7514 181.578 47.7926 186.677 48.3193C193.838 49.0589 197.302 48.4613 198.915 49.2645C199.641 49.6259 199.19 50.9149 198.569 51.6837C194.553 56.653 182.87 55.7752 178.961 59.3368C175.569 62.4284 171.725 63.0065 169.881 64.261C168.933 64.9062 168.5 66.1274 168.775 66.7793C169.379 68.2134 172.483 68.0021 174.638 68.7347C176.535 70.1734 177.952 72.0365 178.99 73.9337C179.513 74.8895 180.028 75.831 180.402 75.8025" stroke="white" stroke-width="3" stroke-linecap="round"/>
<path d="M84.5062 110.69C84.5062 110.153 84.5062 108.533 84.0653 106.229C83.7024 104.333 80.9523 103.909 79.1753 103.368C77.3984 102.826 75.3142 102.818 73.0919 103.494C71.1635 104.438 69.9611 105.797 69.3688 107.421C69.0704 108.24 68.7765 109.045 68.4736 111.504" stroke="white" stroke-width="3" stroke-linecap="round"/>
<path d="M80.9436 210.817C80.9436 219.975 80.3558 235.222 79.906 240.509C79.7297 242.581 79.1622 247.139 79.6031 252.569C79.8349 255.423 104.494 252.333 117.89 253.008C123.696 253.301 130.181 253.961 137.614 255.308C146.58 256.933 160.429 258.845 172.899 256.83C185.566 254.784 178.03 241.506 178.769 237.289C179.214 231.99 179.811 225.25 179.664 217.113C179.517 214.081 179.223 213.275 178.92 210.817" stroke="white" stroke-width="3" stroke-linecap="round"/>
<path d="M92.5225 211.631C92.5225 214.863 91.9347 221.383 91.4849 236.805C91.3883 240.116 91.044 240.92 91.3334 241.201C99.2115 248.844 123.679 241.473 127.981 242.426C135.075 243.996 149.99 243.378 160.046 244.054C161.679 244.164 164.028 244.192 165.239 243.521C166.744 239.316 167.341 229.621 168.08 221.562C168.232 219.267 168.232 215.506 168.232 211.631" stroke="white" stroke-width="3" stroke-linecap="round"/>
<path d="M146.099 46.7941C143.56 45.2428 140.152 43.3065 138.244 41.3645C137.329 40.4326 135.915 40.1922 135.264 40.7638C131.432 44.1287 136.311 49.1153 136.317 51.2498C136.333 56.548 124.429 54.5624 121.002 55.9271C115.47 58.1303 132.035 59.228 136.936 62.1382C138.203 62.8909 138.85 64.2669 138.652 65.0543C137.585 69.3039 130.797 69.3408 129.514 70.1165C129.158 70.3323 130.759 70.8921 132.041 70.7055C137.591 69.898 142.245 67.0197 147.356 65.4625C152.274 63.9644 157.56 66.9963 161.408 69.1484C165.882 71.6505 154.612 63.1355 154.395 60.8085C153.914 55.6494 161.402 54.1891 162.684 52.6378C158.032 50.2933 152.493 49.5235 149.947 47.9722C148.665 47.1907 147.401 46.4209 144.823 45.6277" stroke="white" stroke-width="3" stroke-linecap="round"/>
<path d="M73.3426 85.7347C74.1048 87.1349 76.6683 89.9422 78.7238 92.7601C80.7046 95.4755 82.0573 98.3852 84.2398 101.087C86.4218 103.788 90.2638 104.492 94.498 104.383C96.3175 104.336 96.692 101.924 97.077 100.172C98.0639 95.6803 95.9299 92.7847 94.9021 89.9668C93.8744 87.1489 93.3586 84.3416 91.9536 81.5238C90.5879 78.7845 89.7711 75.8986 88.6164 73.0807C87.3416 69.9699 84.1359 67.9199 81.0526 66.6253C77.8661 65.2873 74.8977 64.1627 71.8145 62.6395C70.3498 61.9158 68.2231 61.8127 65.9174 62.161C61.8345 62.7777 59.5008 66.7238 56.4175 68.8416C53.498 70.8469 51.0325 73.2953 48.0763 75.8739C45.342 78.259 44.3502 81.4991 44.2155 84.901C44.0969 87.8947 45.3664 90.6458 46.3942 94.6316C47.2158 97.8182 49.2156 100.496 50.8824 103.314C52.4951 106.041 53.8347 108.939 55.6285 111.757C56.1443 112.464 56.6524 113.161 57.0411 113.868C57.4299 114.575 57.6839 115.271 58.7155 115.285" stroke="white" stroke-width="3" stroke-linecap="round"/>
<path d="M69.4932 110.36C69.4932 108.264 70.0013 104.042 70.902 101.108C71.2869 97.7028 71.8027 93.2702 72.0568 88.3486C72.3108 86.4454 72.8189 85.7489 74.8821 83.624" stroke="white" stroke-width="3" stroke-linecap="round"/>
<path d="M44.0883 87.8452C41.2861 87.8452 35.6354 88.3096 32.5522 90.4168C29.4149 92.561 26.1355 95.5706 23.5681 97.8045C21.1552 99.9039 19.9767 103.31 17.9212 106.128C15.9404 108.843 14.5878 111.753 12.5323 114.571C10.5515 117.286 9.19888 120.661 7.78237 124.302C6.56885 127.421 5.0879 130.046 4.69913 133.448C4.35249 136.481 3.28647 139.657 2.64749 146.081C0.657568 166.086 3.79456 169.447 4.82231 172.265C5.85005 175.083 7.38205 178.355 9.31051 181.412C10.9556 184.02 11.493 187.037 13.0327 189.855C14.4293 192.411 14.5724 195.48 16.1121 198.414C17.7575 201.549 18.4216 204.627 20.0884 207.445C21.7011 210.171 23.5488 213.07 25.4773 215.888C27.2185 218.432 29.7076 220.809 33.553 224.795C36.1508 227.488 38.1759 230.66 40.2314 233.477C42.2869 236.295 44.3347 239.103 45.6241 241.92C46.9059 244.738 48.9537 247.546 51.0092 250.947C51.525 251.774 52.0331 252.471 51.7868 252.485" stroke="white" stroke-width="3" stroke-linecap="round"/>
<path d="M58.7155 113.175C56.9294 114.104 53.85 117.382 51.9216 120.784C50.3499 123.557 49.7391 126.529 48.7113 129.931C47.8132 132.904 47.1678 135.676 46.4018 138.61C45.5047 142.046 44.8582 145.287 44.2193 149.853C42.7672 160.23 43.3186 172.403 44.0846 180.005C44.3826 182.963 46.6443 185.63 47.9338 188.448C49.1878 191.188 50.4935 194.073 53.188 195.723C55.6284 198.07 57.6839 199.709 58.8348 200.997C59.4776 201.588 60.2398 202.052 61.7949 202.53" stroke="white" stroke-width="3" stroke-linecap="round"/>
<path d="M210.375 126.543C210.629 125.142 211.145 121.871 212.804 118.93C213.637 117.452 215.756 117.164 217.292 116.928C220.495 116.436 223.447 119.732 230.237 125.814C233.721 128.935 234.748 132.157 236.415 134.975C238.028 137.702 239.368 140.6 241.034 143.418C242.647 146.145 243.987 149.043 245.141 151.861C246.371 154.862 247.836 157.486 248.864 160.304C249.891 163.122 250.915 165.929 251.943 168.747C252.948 171.503 253.225 174.372 253.614 179.526C254.021 184.931 253.748 191.962 252.72 194.78C251.59 197.88 249.899 201.109 248.744 203.927C247.469 207.037 244.772 209.552 241.954 212.95C236.74 219.239 233.224 220.809 229.764 224.095C226.165 227.512 221.168 230.899 218.212 233.477C215.509 235.835 213.208 238.399 210.387 240.517C207.564 242.635 205.002 244.97 201.918 246.849C201.145 247.32 200.383 247.785 199.609 248.256C198.835 248.728 198.073 249.192 195.748 248.263" stroke="white" stroke-width="3" stroke-linecap="round"/>
<path d="M216.534 137.8C216.534 143.387 217.042 153.73 217.431 157.371C217.773 160.579 218.582 163.819 219.482 167.101C220.861 172.125 220.891 175.076 221.026 191.326C221.073 196.954 219.105 199.702 218.077 202.52C216.916 205.705 216.796 209.552 215.002 212.37C213.206 215.191 211.668 217.995 208.72 220.929C205.155 224.476 201.922 226.213 198.712 227.853C194.997 229.75 192.422 232.067 189.601 233.485C188.065 233.953 186.518 234.192 185.109 233.844C184.462 233.495 183.954 232.799 183.43 231.377" stroke="white" stroke-width="3" stroke-linecap="round"/>
<path d="M219.613 165.24C221.907 165.24 227.035 164.312 231.146 163.133C234.954 162.041 238.074 161.258 241.157 160.319C241.931 160.083 242.693 159.851 243.467 159.615C244.241 159.38 245.003 159.147 245.018 158.205" stroke="white" stroke-width="3" stroke-linecap="round"/>
<path d="M49.8943 252.892C49.8943 256.507 51.865 263.78 53.6192 269.695C56.0968 278.049 59.8373 282.882 60.0985 309.864C60.1996 320.307 55.3883 328.345 52.6413 334.737C50.1554 340.522 47.4161 345.646 44.1839 351.111C41.0563 356.398 38.4585 362.019 36.2191 368.616C34.1377 374.748 30.0085 379.757 27.5079 385.222C25.076 390.536 22.5439 396.13 20.0432 401.595C17.6114 406.909 15.0792 412.504 12.5786 417.968C12.0784 419.339 11.5858 420.69 11.0856 422.062C10.5855 423.433 10.0928 424.784 6.59937 423.446" stroke="white" stroke-width="3" stroke-linecap="round"/>
<path d="M197.694 248.798C197.694 260.533 196.709 282.418 196.448 303.069C196.334 312.071 198.68 318.357 200.426 323.822C202.116 329.108 203.158 334.731 203.912 340.42C204.935 348.141 210.115 356.098 215.587 366.099C221.566 377.028 226.538 385.215 229.531 390.68C232.877 396.788 236.988 401.588 240.974 407.053C244.96 412.517 247.946 416.611 249.193 417.982C249.454 418.002 248.961 416.652 248.454 415.26" stroke="white" stroke-width="3" stroke-linecap="round"/>
<path d="M9.58521 424.811C13.0488 424.811 20.0059 426.612 25.985 428.897C32.2325 431.285 48.282 431.633 60.5538 432.766C75.2036 434.118 84.172 434.362 94.63 435.495C106.397 436.769 115.568 436.177 127.661 436.859C179.666 439.793 185.721 435.726 191.7 434.594C197.601 433.476 205.607 432.998 212.601 431.64C218.631 430.47 224.537 429.368 231.756 428.679C237.989 427.09 241.975 424.825 244.207 422.553C245.453 421.632 246.931 421.182 251.44 417.989" stroke="white" stroke-width="3" stroke-linecap="round"/>
<path d="M76.7668 435.727C76.7668 439.342 78.7375 448.416 82.4773 457.073C85.1698 463.306 86.7098 469.81 88.7028 475.275C90.6959 480.739 92.1888 484.833 93.1816 487.555C93.6817 488.926 94.1744 490.277 94.682 493.033" stroke="white" stroke-width="3" stroke-linecap="round"/>
<path d="M114.09 437.091V493.033" stroke="white" stroke-width="3" stroke-linecap="round"/>
<path d="M112.597 494.397C111.612 494.397 107.656 494.397 101.692 495.072C93.3148 496.021 90.7111 503.921 85.9934 508.253C83.5055 510.537 82.2462 513.486 81.4997 516.433C81.1016 518.004 81.2459 519.83 82.4776 520.758C83.7092 521.686 86.1726 521.686 88.1806 521.01C95.712 518.477 100.624 513.063 106.357 510.327C112.137 507.568 115.076 502.611 117.069 497.146C117.569 495.775 118.062 494.424 117.084 493.728C116.106 493.033 113.642 493.033 111.634 493.483C104.651 495.049 100.684 501.656 94.7047 505.299C93.2043 506.213 91.7263 507.114 90.7185 508.253C89.7108 509.392 89.2181 510.743 88.7106 512.135" stroke="white" stroke-width="3" stroke-linecap="round"/>
<path d="M142.456 438.455C142.456 444.786 143.441 454.801 145.188 460.491C147.151 466.883 147.92 472.539 149.667 478.228C151.629 484.621 152.399 490.276 153.153 495.741C153.951 501.528 159.356 506.65 163.588 511.889C165.683 514.482 168.821 516.214 171.053 518.486C173.131 520.601 177.764 520.321 181.743 519.646C187.664 518.641 185.751 509.883 185.012 506.022C183.852 499.961 174.823 498.518 170.59 493.278C168.496 490.685 164.865 489.853 161.887 489.171C158.908 488.939 155.907 489.84 153.422 491.88C152.414 493.019 151.921 494.37 149.921 495.762" stroke="white" stroke-width="3" stroke-linecap="round"/>
<path d="M169.329 488.939C169.329 480.821 170.314 464.407 172.061 456.691C172.314 453.068 172.314 447.215 172.561 443.524C172.807 439.833 173.3 438.483 173.807 437.091" stroke="white" stroke-width="3" stroke-linecap="round"/>
<path d="M157.385 491.668C158.878 493.019 160.849 498.463 163.596 503.928C166.487 509.679 172.3 512.121 175.278 513.943C176.596 514.749 178.256 513.963 179.264 513.056C180.272 512.149 180.765 510.798 180.279 509.427C175.315 504.863 170.837 503.048 167.858 501.683C166.358 501.22 164.88 501.22 163.357 501.22" stroke="white" stroke-width="3" stroke-linecap="round"/>
<path d="M108.998 499.003C106.245 499.56 97.6541 505.149 93.3033 509.966C90.4725 513.1 89.2942 515.88 89.442 517.007C89.9049 520.537 96.9706 514.774 100.67 512.52C106.654 508.873 112.074 502.389 112.078 500.983C112.081 500.351 110.864 500.135 109.631 500.13C108.397 500.126 106.873 500.405 105.783 500.966C101.878 502.977 100.388 507.429 97.0029 509.269C95.1708 510.265 93.6081 511.659 93.4465 512.228C91.9443 517.524 101.589 506.331 104.522 503.237C105.313 502.403 106.208 501.553 106.374 500.704C106.541 499.856 105.931 499.02 104.702 498.59C101.814 497.577 98.8458 498.716 97.1553 499.978C93.7415 502.527 92.0747 506.585 89.6083 509.966C88.3797 511.65 87.1419 513.347 85.9133 515.031C85.2944 515.88 84.6847 516.716 83.1328 519.265" stroke="white" stroke-width="3" stroke-linecap="round"/>
<path d="M161.652 499.848C161.347 499.848 161.042 499.848 161.19 500.266C162.334 503.501 167.176 506.298 170.875 510.527C173.765 513.831 178.261 514.757 182.27 514.348C183.251 514.247 182.898 512.258 182.288 511.123C179.885 506.647 174.603 505.487 171.67 502.254C168.257 498.492 167.203 495.914 165.513 495.487C164.752 495.295 164.127 496.454 163.966 497.442C163.295 501.541 167.176 504.339 170.261 507.573C174.911 512.446 180.108 516.159 183.35 517.577C184.781 518.203 183.517 514.208 182.598 512.663C180.567 509.251 176.45 507.176 172.903 503.381C169.913 500.182 166.289 497.332 162.437 495.77C161.438 495.365 160.137 495.626 159.356 496.044C158.576 496.462 158.271 497.298 158.418 498.147C159.236 502.84 165.642 506.585 168.261 509.966C171.718 514.43 176.117 517.568 177.803 518.835C178.711 519.517 180.404 519.265 181.341 518.847C183.005 518.106 183.203 515.897 183.512 513.934C184.28 509.064 179.221 505.774 177.36 502.393C175.559 499.122 173.974 496.479 172.593 495.073C171.308 493.765 165.393 493.938 158.617 494.495C156.34 494.682 156.719 496.167 157.638 497.437C161.558 502.857 164.109 505.741 165.494 509.122C167.804 512.503 170.261 515.871 172.727 519.253C173.346 520.101 173.956 520.937 174.584 520.11" stroke="white" stroke-width="3" stroke-linecap="round"/>
</svg>
