<svg width="295" height="273" viewBox="0 0 295 273" fill="none" xmlns="http://www.w3.org/2000/svg">
<path d="M209.993 99.7873C209.993 99.8563 209.993 103.037 209.873 110.239C209.723 119.176 208.876 126.181 208.154 129.451C207.745 131.303 206.955 132.108 204.129 134.106C197.119 139.062 191.576 142.224 190.089 143.272C187.842 144.857 183.532 144.927 173.489 142.53C165.856 140.708 153.618 135.297 144.043 132.042C134.468 128.787 128.066 127.249 123.43 126.122C116.113 124.343 111.594 122.93 108.689 121.764C104.671 120.152 99.5992 118.051 95.6696 116.089C93.8352 115.174 92.8447 114.125 92.5054 113.212C92.3343 112.751 92.4098 112.208 92.5366 111.74C93.1543 109.462 97.394 106.934 100.418 105.049C102.691 103.631 104.469 101.983 105.622 99.8002C107.908 95.4722 106.533 88.958 106.856 82.4254C107.144 76.5885 107.534 65.6229 107.84 59.4378C108.199 52.1699 108.862 50.1963 109.599 48.6452C110.666 46.4008 113.989 45.057 123.676 43.2823C134.501 41.2992 142.168 43.0428 144.006 43.3655C146.527 43.8082 150.931 44.7344 161.637 47.2543C169.403 49.0824 182.01 51.4793 189.144 53.0477C200.116 55.46 202.74 58.489 204.958 61.6128C207.556 65.2716 210.028 73.1874 210.739 79.604C211.491 86.3956 211.414 91.69 211.051 96.7301C210.944 98.0915 210.832 99.36 210.674 101.039C210.609 101.967 210.577 103.05 210.393 104.22" stroke="#6487F2" stroke-width="2" stroke-linecap="round"/>
<path d="M172.78 164.091C172.78 164.126 172.78 165.401 172.821 167.587C172.943 169.085 173.027 170.268 172.816 171.236C172.606 171.605 172.185 171.726 170.782 171.85" stroke="#6487F2" stroke-width="2" stroke-linecap="round"/>
<path d="M172.376 163.674C172.251 163.674 171.707 163.538 169.557 162.813C165.012 161.282 157.859 158.137 150.935 155.066C147.387 153.493 143.493 152.942 138.677 151.518C131.979 149.538 126.242 146.919 118.805 144.009C115.837 142.848 108.787 140.296 102.482 137.068C99.9953 135.795 97.5485 135.641 95.7711 136.306C95.4881 136.663 95.3347 137.144 95.1239 137.632C94.9131 138.12 94.6497 138.601 94.5932 140.172" stroke="#6487F2" stroke-width="2" stroke-linecap="round"/>
<path d="M99.3889 140.536C99.9526 140.648 103.225 142.239 107.926 145.188C111.126 147.195 114.958 147.757 117.724 148.919C118.183 149.112 118.608 149.316 122.396 150.768C126.185 152.219 133.317 154.929 138.541 156.748C146.808 159.626 150.562 160.505 152.429 161.14C158.982 163.367 162.324 163.891 164.821 165.199C166.548 166.103 167.876 167.607 168.944 169.183C170.202 171.036 166.648 175.093 164.726 178.239C163.582 180.113 159.301 185.042 154.345 192.127C149.184 199.505 143.565 206.376 140.584 209.462C137.89 212.253 131.955 217.308 125.161 224.572C117.009 233.286 115.157 236.505 113.892 239.195C113.598 239.821 112.915 239.986 109.731 242.948C106.546 245.909 100.757 251.572 96.484 255.933C89.5142 263.047 85.1919 267.877 82.2378 270.603C81.0969 271.656 80.5444 271.848 79.5669 271.975C77.1815 272.284 70.6885 269.774 61.3189 265.123C53.2069 261.097 49.016 258.046 46.834 256.986C45.3809 256.281 43.3489 254.945 38.9757 252.655C34.6025 250.365 27.9811 247.088 24.0692 245.013C17.2844 241.414 14.767 238.191 12.6753 236.275C9.73508 233.582 6.39775 230.474 2.59761 226.954C1.77249 226.19 1.28405 225.725 1.06448 225.153C0.618754 223.992 2.53731 221.2 5.19571 217.71C6.99417 215.349 10.8074 211.339 19.0899 204.366C24.0342 200.203 31.101 195.702 34.8459 193.096C38.9917 190.211 42.0427 187.936 47.6104 183.265C54.1799 177.753 57.112 172.353 59.3177 170.466C63.077 167.252 67.8992 164.126 72.4655 161.193C80.5143 156.023 84.1184 151.688 88.783 147.61C91.5975 145.149 94.0509 143.409 95.826 142.134C96.3038 141.884 96.8588 141.676 97.6713 141.567C98.4838 141.458 99.537 141.452 100.622 141.447" stroke="#6487F2" stroke-width="2" stroke-linecap="round"/>
<path d="M164.182 169.667C163.659 170.536 161.908 173.529 158.994 178.064C156.958 181.234 153.41 185.859 147.239 192.907C141.068 199.955 132.284 209.208 126.702 215.221C118.909 223.617 115.687 227.319 113.419 229.439C107.322 235.14 99.5178 241.957 97.2316 243.857C96.8679 244.159 96.383 244.182 90.7361 241.597C85.0893 239.013 74.245 233.729 68.0518 230.607C61.8587 227.485 60.6454 226.685 56.9946 224.715C53.3437 222.745 47.2921 219.628 43.2153 217.268C32.3302 210.965 27.4584 206.258 27.2531 205.271C26.9084 203.614 30.1715 200.764 34.2032 196.623C38.7839 191.919 43.4121 188.474 46.2541 186.204C47.7598 185.001 49.826 183.33 52.6806 181.247C54.3621 180.02 59.2683 176.5 66.4621 170.878C70.9581 167.364 73.3968 165.051 76.7363 162.311C82.6849 157.431 87.2713 152.841 89.671 150.98C93.5521 147.969 97.0567 145.881 99.4513 145.159C100.472 144.852 104.574 146.266 111.487 149.232C114.908 150.7 118.058 152.359 122.81 154.068C127.562 155.778 133.796 157.556 138.703 159.197C147.086 162.001 152.559 165.019 155.986 167.05C157.957 168.161 159.061 168.663 160.284 169.038C161.027 169.237 162.021 169.455 163.977 169.68" stroke="#6487F2" stroke-width="2" stroke-linecap="round"/>
<path d="M165.017 180.063C165.692 180.117 171.142 182.195 176.809 184.486C182.785 186.901 188.099 185.521 195.069 184.044C197.445 183.541 201.066 181.216 207.411 177.455C214.803 173.074 220.762 171.042 224.182 169.687C228.493 167.98 231.942 166.034 235.085 164.673C243.205 161.155 245.747 160.088 252.057 157.355C256.416 155.467 264.112 151.098 268.652 148.788C276.346 144.871 280.096 143.191 282.783 141.442C287.481 138.382 288.173 135.822 289.531 131.718C291.628 125.38 292.993 115.425 293.572 112.319C293.823 110.973 294.152 109.957 293.922 109.115C293.319 106.907 286.877 103.612 283.396 100.669C280.607 98.3109 276.463 94.1725 273.582 91.584C270.944 89.2134 269.096 86.9159 266.698 83.5413C265.064 81.2415 261.544 78.1753 258.415 75.9278C257.458 75.3367 256.483 74.7031 255.318 73.8698C254.704 73.4036 254.043 72.8494 252.945 71.8562" stroke="#6487F2" stroke-width="2" stroke-linecap="round"/>
<path d="M254.754 128.214C254.496 127.73 253.413 125.854 252.386 122.272C251.708 119.908 251.293 116.781 250.991 111.969C250.801 108.953 250.886 104.751 250.913 98.0842C250.94 91.4177 250.995 82.4088 250.991 76.7587C250.982 66.2459 250.258 63.7516 250.049 60.5548C249.868 57.7744 247.746 56.0408 246.295 53.941C244.568 51.4427 238.336 47.5666 234.526 45.2222C229.437 43.343 221.868 41.1086 218.941 40.7194C218.23 40.6328 217.489 40.5261 215.88 40.2952" stroke="#6487F2" stroke-width="2" stroke-linecap="round"/>
<path d="M293.038 109.264C292.455 109.46 290.123 110.441 287.08 111.792C285.113 112.666 283.728 114.014 282.319 115.186C280.103 117.03 273.138 120.804 264.576 125.413C260.775 127.459 259.209 127.428 256.843 128.444C252.213 130.433 248.049 133.226 244.472 135.395C239.595 138.35 233.714 140.842 229.399 143.518C226.095 145.567 221.283 146.816 210.478 150.412C203.069 152.877 199.225 155.08 195.619 155.884C192.674 156.54 186.127 156.646 180.126 156.002C176.514 155.614 172.732 153.014 165.079 151.34C162.998 150.885 161.896 150.804 160.102 150.468C157.191 149.922 150.938 147.667 143.829 144.786C139.052 142.849 134.64 140.901 125.731 137.531C121.002 135.742 114.866 134.706 108.508 132.404C100.098 128.931 96.4116 127.714 94.4835 126.822C93.9677 126.525 93.3951 126.206 92.2752 125.048" stroke="#6487F2" stroke-width="2" stroke-linecap="round"/>
<path d="M90.9274 113.508C90.9175 115.291 90.5212 120.993 90.1254 124.088C89.6192 128.046 90.6223 129.96 91.7116 134.727C91.9991 136.005 92.2076 137.013 92.3881 137.758C92.5687 138.503 92.715 138.954 93.0374 140.103" stroke="#6487F2" stroke-width="2" stroke-linecap="round"/>
<path d="M228.824 167.109C228.9 166.58 229.63 163.995 230.568 160.678C231.12 158.725 231.352 156.952 231.555 154.564C231.941 150.015 231.612 143.158 231.497 135.229C231.381 127.272 231.338 121.535 231.734 118.709C231.979 116.966 232.063 115.461 232.302 109.787C232.505 104.995 232.434 96.306 232.373 89.8441C232.275 79.4045 231.949 74.125 231.849 71.9431C231.647 67.5287 230.757 62.3249 229.385 59.9003C227.385 56.368 225.356 55.5124 221.852 52.6997C219.566 51.2555 218 50.2933 217.253 49.7298C216.867 49.4376 216.466 49.133 215.932 48.6814" stroke="#6487F2" stroke-width="2" stroke-linecap="round"/>
<path d="M195.95 54.8928C196.781 54.8928 199.333 54.6517 203.019 53.8926C207.383 52.9937 210.422 52.2163 213.675 51.1299C214.329 50.9114 214.776 50.7421 215.192 50.4588C218.686 48.0775 216.015 37.6745 215.443 35.2404C214.838 32.6671 213.998 28.1653 212.808 25.0233C211.234 20.8705 205.42 16.5746 201.863 14.6077C199.514 13.3085 196.496 13.3809 185.223 9.33649C178.836 7.0448 172.924 6.60647 168.399 6.14786C165.257 5.82949 163.583 5.29146 162.609 5.05481C161.564 4.80068 154.791 4.05293 145.081 2.72735C140.882 2.15407 139.475 1.98466 134.226 1.64962C129.685 1.35971 121.31 1.30853 116.745 1.18358C111.672 1.04473 108.961 0.914058 104.563 1.07254C100.182 1.23042 95.699 1.87915 92.0112 2.00338C86.9455 2.17402 79.3846 3.01621 76.8216 4.20529C74.9031 5.09537 74.0969 8.1881 73.578 10.6628C72.6655 15.0142 72.4529 27.4367 72.9381 33.8292C72.9903 34.516 73.4277 35.0432 73.8488 35.4582C74.7057 36.3028 77.8624 36.3943 84.1052 36.4068C92.9365 36.4244 98.9148 36.4325 100.632 36.6169C101.566 36.7172 102.636 36.6917 107.208 37.5208C111.781 38.3498 119.827 39.9986 125.252 40.8507C136.309 41.7738 137.669 41.9519 138.643 42.0472C139.138 42.0862 139.635 42.1062 140.525 42.1782" stroke="#6487F2" stroke-width="2" stroke-linecap="round"/>
<path d="M178.812 50.2928C178.812 49.3895 177.629 41.959 175.081 31.358C173.798 26.0202 170.14 19.375 164.671 15.8703C160.138 12.9658 157.656 13.6452 154.778 13.1342C151.545 12.5602 147.899 11.5714 145.157 10.9146C143.568 10.5341 138.394 10.4327 129.912 10.0643C123.155 9.77083 119.564 8.97546 115.818 8.53177C112.693 8.16167 107.115 7.20071 102.878 6.70753C92.0036 5.44173 88.3117 5.1504 84.9326 4.63343C82.1717 4.21104 79.8801 4.71509 78.7339 5.18084C76.7352 5.99295 75.2123 8.02595 73.9767 9.61101C73.7601 10.0422 73.5868 10.5013 73.3856 11.0301C73.1845 11.5589 72.9606 12.1434 72.675 12.9916" stroke="#6487F2" stroke-width="2" stroke-linecap="round"/>
<path d="M83.1784 14.3516C84.4117 14.36 92.721 15.4276 99.5483 16.737C106.158 18.0047 110.348 17.9089 114.853 18.63C116.114 18.8317 116.93 19.3039 117.74 19.6553C119.406 20.3786 119.661 23.4915 119.844 29.8646C119.896 31.6738 119.132 32.7421 118.344 33.7793C116.682 35.9653 109.258 33.8443 103.75 32.1918C102.132 31.7064 98.5555 31.4948 92.3243 30.8479C85.0604 30.0938 80.7986 28.6918 80.1074 27.7214C77.8786 24.592 78.5513 19.4968 79.343 17.0812C79.6828 16.7522 80.1272 16.5335 80.5615 16.3657C80.9959 16.198 81.4068 16.0877 82.0367 15.9742" stroke="#6487F2" stroke-width="2" stroke-linecap="round"/>
<path d="M84.9253 15.7449V27.9363" stroke="#6487F2" stroke-width="2" stroke-linecap="round"/>
<path d="M87.8752 17.3127C87.8752 17.3497 87.8752 17.3866 87.8752 19.0193C87.8752 20.652 87.8752 23.8792 87.9885 28.3332" stroke="#6487F2" stroke-width="2" stroke-linecap="round"/>
<path d="M161.333 33.245C161.333 33.2789 161.295 33.8397 161.019 34.7347C160.76 35.5777 157.691 35.3778 152.842 35.1577C147.173 34.9003 141.544 33.5364 136.966 32.6744C131.534 31.6517 129.661 31.6381 128.736 31.337C128.344 31.2095 128.344 30.5999 128.555 30.3222C129.042 29.6808 134.731 29.9154 143.773 30.0526C154.693 30.8722 157.012 31.2364 158.283 31.4462C158.921 31.5463 159.547 31.6335 160.78 31.8041" stroke="#6487F2" stroke-width="2" stroke-linecap="round"/>
<path d="M119.437 19.9834C121.596 19.9967 127.376 20.3521 132.25 20.8846C133.696 21.0427 134.564 21.5116 135.773 21.9722C137.582 22.6618 144.47 23.7017 153.593 25.6742C159.894 27.0365 162.337 27.2862 164.791 27.974C166.008 28.3153 167.045 29.7292 168.02 31.3474C169.747 34.2125 169.379 40.5645 168.682 44.0043C168.233 46.2231 161.549 45.3171 154.134 44.653C151.401 44.4083 147.184 44.4066 142.976 43.9649C138.768 43.5233 134.692 42.7262 130.85 41.7771C123.482 39.9564 118.305 38.5469 114.306 37.9985C111.921 37.6715 108.884 36.7341 104.515 35.3296C100.146 33.9251 94.5557 31.951 91.2859 30.8642C88.0162 29.7773 87.2368 29.6373 85.9339 29.3133" stroke="#6487F2" stroke-width="2" stroke-linecap="round"/>
<path d="M195.75 108.145C196.698 108.145 199.578 108.538 201.702 109.975C203.008 110.859 203.545 112.29 203.866 113.39C204.28 114.81 204.255 116.538 204.09 118.247C203.916 120.057 202.885 121.332 202.116 122.157C200.685 123.691 198.462 123.605 195.869 123.583C194.682 123.572 193.923 122.583 193.355 121.758C191.864 119.592 192.19 113.628 192.68 110.378C193.833 108.703 195.407 107.445 197.546 106.902C198.217 106.841 199.027 106.841 199.984 107.12" stroke="#6487F2" stroke-width="2" stroke-linecap="round"/>
<path d="M120.614 84.6777C121.19 84.7522 123.125 85.4959 124.76 87.1105C126.263 88.5949 126.214 91.8951 126.246 98.0434C126.257 100.157 125.447 101.636 124.561 102.907C123.85 103.929 122.986 104.401 121.941 104.64C119.081 105.294 117.051 102.989 115.472 101.3C113.505 99.1955 113.801 94.3808 114.338 91.6741C115.776 89.5966 118.307 87.6712 120.141 86.5972C120.524 86.352 120.901 86.086 121.34 85.7276" stroke="#6487F2" stroke-width="2" stroke-linecap="round"/>
<path d="M177.242 56.7431C177.106 57.283 176.049 59.6386 174.52 60.9748C173.808 61.5966 172.024 61.2647 167.264 60.6743C163.622 60.2224 157.549 58.9445 152.949 58.0394C141.918 55.8687 139.878 55.7383 138.273 55.0575C137.414 54.6931 138.575 52.91 139.028 51.9362C140.676 48.3859 153.115 50.9987 158.953 52.055C164.548 53.0674 166.479 53.0298 168.93 53.2689C171.306 53.6291 173.698 53.9941 175.338 54.2486C176.035 54.3777 176.454 54.5067 177.203 54.8323" stroke="#6487F2" stroke-width="2" stroke-linecap="round"/>
<path d="M167.069 63.8869C167.545 64.2734 169.138 66.3276 170.585 69.2143C171.928 71.8927 173.18 75.0921 174.739 79.5605C177.574 87.6906 176.412 93.5279 174.678 98.98C173.315 103.265 169.018 106.467 161.751 110.296C157.12 112.737 148.54 109.895 143.338 106.186C137.725 102.182 135.571 95.2842 133.633 88.7049C131.412 81.1591 133.615 74.211 136.717 68.7699C139.514 63.8648 142.503 60.9273 145.03 59.1482C149.144 56.2513 156.748 56.9049 161.111 57.6481C165.668 60.4689 167.035 61.9212 168.035 63.1677C168.437 63.7624 168.625 64.2803 168.819 64.8138" stroke="#6487F2" stroke-width="2" stroke-linecap="round"/>
<path d="M158.273 64.6187C158.773 64.7943 161.479 66.5223 164.107 69.8908C166.463 72.9104 167.751 77.1052 169.191 81.144C170.778 85.5926 169.209 91.3579 167.639 94.5092C166.009 97.7813 163.419 99.9724 160.944 101.651C156.749 104.497 149.77 103.639 146.561 103.191C144.601 102.917 143.394 100.395 142.082 98.3058C139.141 93.6228 137.154 87.4206 136.866 81.2457C136.716 78.0526 138.972 74.1081 142.586 68.5282C145.555 65.6687 148.993 64.2344 152.731 63.3982C154.408 63.1058 155.638 63.0816 156.802 63.0566" stroke="#6487F2" stroke-width="2" stroke-linecap="round"/>
<path d="M161.357 74.5363C159.145 74.4606 154.242 74.6642 153.339 75.4598C150.898 77.612 151.041 80.348 151.098 85.0933C151.141 88.7282 154.904 91.4595 157.29 92.9141C157.715 93.173 158.256 92.9552 158.752 92.6079C161.791 90.478 162.912 85.4985 163.556 82.555C164.01 80.4824 163.536 78.7081 162.919 77.4371C161.239 73.9758 159.497 72.7997 157.555 71.2913C155.884 69.9932 152.614 70.3311 150.281 71.5892C147.652 73.0074 147.697 77.8128 147.223 82.4843C146.658 88.0516 148.467 90.5496 149.668 92.5552C150.255 93.5359 151.586 94.5504 153.366 95.5274C155.034 96.4424 156.578 95.8256 157.448 95.4688C157.889 95.2173 158.329 94.823 158.578 94.3836C158.828 93.9443 158.874 93.4718 158.922 92.1223" stroke="#6487F2" stroke-width="2" stroke-linecap="round"/>
<path d="M132.512 46.864C132.544 46.864 133.127 46.864 134.146 47.0173C135.017 47.1483 135.475 48.2955 135.921 49.5533C138.332 56.3617 136.413 68.5081 135.503 71.9195C133.915 77.8747 130.558 79.5846 127.818 80.718C125.751 81.5725 123.452 80.434 121.586 79.3361C119.031 77.8329 115.314 78.6035 113.432 77.0983C109.985 74.3416 110.39 69.5342 110.286 61.0029C110.219 55.5157 111.36 51.9988 112.535 50.134C114.3 48.7931 116.675 47.784 122.359 47.0899C124.896 47.0035 128.718 47.0035 132.657 47.0035" stroke="#6487F2" stroke-width="2" stroke-linecap="round"/>
<path d="M119.807 48.4778C119.74 49.0737 119.115 51.8341 118.182 58.3819C117.483 63.2816 118.129 69.5497 119.258 72.4377C120.105 74.6024 123.376 74.7155 126.45 75.3247C127.102 75.4849 127.571 75.6624 128.171 75.9049C128.772 76.1475 129.49 76.4498 130.739 76.886" stroke="#6487F2" stroke-width="2" stroke-linecap="round"/>
<path d="M124.677 48.1125C124.61 48.9737 123.984 53.001 123.586 56.8712C122.921 63.3287 125.238 66.6846 126.974 68.8286C128.662 69.8046 130.032 70.1305 130.887 70.3017C131.318 70.3892 131.744 70.4783 132.807 70.8564" stroke="#6487F2" stroke-width="2" stroke-linecap="round"/>
<path d="M131.377 53.1768C131.387 54.4252 131.491 58.3135 131.383 60.152C131.277 61.9594 128.13 58.3572 127.262 57.4461C127.448 56.6707 128.747 55.7551 130.365 54.7976C131.056 54.3948 131.485 54.161 132.274 53.5879" stroke="#6487F2" stroke-width="2" stroke-linecap="round"/>
<path d="M232.468 106.129C232.5 106.129 233.242 106.129 234.457 106.603C237.403 107.753 235.746 115.343 235.055 118.573C234.952 119.053 234.332 119.178 233.713 119.305C233.093 119.433 232.281 119.433 231.803 119.082C230.991 116.68 230.624 113.963 230.664 109.443C230.798 108.522 231.066 108.152 232.337 107.627" stroke="#6487F2" stroke-width="2" stroke-linecap="round"/>
</svg>
